<svg xmlns="http://www.w3.org/2000/svg" viewBox="0 0 310.01 110.37"><defs><style>.cls-1{fill:#461bff;}</style></defs><title>amil-color_1</title><g id="Layer_2" data-name="Layer 2"><g id="Layer_1-2" data-name="Layer 1"><path class="cls-1" d="M244.54,107.78H261a1.46,1.46,0,0,0,1.52-1.36V32.56A1.43,1.43,0,0,0,261.16,31H244.54A1.44,1.44,0,0,0,243,32.37v73.89a1.44,1.44,0,0,0,1.35,1.52h.18M42.18,93.47a24.06,24.06,0,0,1,0-48.12c13.7,0,23.75,10.82,23.75,24.06S55.88,93.47,42.18,93.47m-1.83,16.9c12.49,0,21.77-5.63,28.63-12.79,5.63,6.09,12.63,10.2,23.29,10.2h2a1.46,1.46,0,0,0,1.52-1.36V94.54a1.83,1.83,0,0,0-1.21-1.83C86,89.36,83.29,84.18,83.29,71.54v-39A1.43,1.43,0,0,0,81.93,31H65.47A1.43,1.43,0,0,0,64,32.42v5.47a33.76,33.76,0,0,0-23.8-9.44C19,28.45,0,46.27,0,69.72c0,25.12,18.88,40.65,40.35,40.65m69.89-2.59h16.44a1.44,1.44,0,0,0,1.53-1.35V66.83a47.42,47.42,0,0,0-3.35-18.43c7-2.74,13.55-4.26,17.66-4.26,10.2,0,15.07,6.24,15.07,19.49v42.63a1.44,1.44,0,0,0,1.35,1.52h16.62a1.43,1.43,0,0,0,1.52-1.34V63.32a46.1,46.1,0,0,0-2.74-16,58.11,58.11,0,0,1,17.06-3.2c10.2,0,15.07,6.24,15.07,19.49v42.63a1.44,1.44,0,0,0,1.31,1.54h16.67a1.43,1.43,0,0,0,1.52-1.34V63.32c0-21-9.59-35.17-30.45-34.87a68,68,0,0,0-28.93,7.16c-5.33-4.72-12.49-7.16-21.32-7.16-9.59,0-18.58,3.51-29.39,8.23a30.14,30.14,0,0,0-15.68-5.33H97.75a1.44,1.44,0,0,0-1.52,1.35V45.36a2,2,0,0,0,1.22,1.82c8.53,3.35,11.27,8.53,11.27,21.17v37.91a1.44,1.44,0,0,0,1.33,1.52h.19m196.12.46h2.13a1.46,1.46,0,0,0,1.52-1.36V94.54a1.82,1.82,0,0,0-1.22-1.83c-8.53-3.35-11.27-8.53-11.27-21.17V4.09a1.43,1.43,0,0,0-1.36-1.52h-16.6A1.44,1.44,0,0,0,278,3.88V72.76c0,21.17,11.12,35.48,28.33,35.48m-53.6-86a11.3,11.3,0,1,1,.25,0h-.25"/></g></g></svg>