<?xml version="1.0" encoding="utf-8"?>
<!-- Generator: Adobe Illustrator 27.6.1, SVG Export Plug-In . SVG Version: 6.00 Build 0)  -->
<svg version="1.1" id="Camada_1" xmlns="http://www.w3.org/2000/svg" xmlns:xlink="http://www.w3.org/1999/xlink" x="0px" y="0px"
	 viewBox="0 0 1124.93 401.13" style="enable-background:new 0 0 1124.93 401.13;" xml:space="preserve">
<style type="text/css">
	.st0{fill:#E3173E;}
</style>
<path class="st0" d="M394.71,322.37c-6.72,0-14.36,1.09-20.13,2.97c-0.3,1.41-0.45,3.11-0.45,4.84c0,1.85,0.15,3.75,0.45,5.28
	c6.73-1.85,12.95-2.62,19.65-2.62c12.48,0,19.51,5.76,19.51,18.7v2.95c-4.22-0.61-7.95-0.9-14.05-0.9c-19.5,0-31.33,8.56-31.33,23.2
	c0,16.86,12.77,24.34,30.41,24.34c9.02,0,18.56-1.41,27.14-3.91v-43.97C425.91,331.56,413.59,322.37,394.71,322.37 M413.75,389.42
	c-3.29,0.79-9.84,1.56-14.67,1.56c-12.17,0-18.73-5.16-18.73-14.5c0-9.68,6.87-13.58,20.27-13.58c5.46,0,9.36,0.16,13.12,0.8V389.42
	z M460.23,248.49v-53.66c0-21.35,11.16-32.77,26.21-32.77c2.68,0,7.28,0,9.96,0.48c1.71-7.03,1.94-17.24,0.48-24.27
	c-1.69-0.49-6.07-0.98-8.48-0.98c-14.32,0-22.59,5.58-30.35,15.53c-0.75-5.08-1.7-9.22-3.41-14.32c-2.92-0.95-8.02-1.21-12.39-1.21
	c-4.12,0-9.46,0.49-12.13,1.21v109.99c3.64,0.96,9.71,1.19,15.05,1.19C450.28,249.68,457.07,249.21,460.23,248.49 M108.22,191.12
	v56.03c0,1.41,1.14,2.53,2.55,2.53h15.03v-71.59l-15,8.62C109.2,187.62,108.22,189.05,108.22,191.12 M153.89,161.94l-21.92,12.6
	v75.14h23.43c2.18,0,3.96-1.76,3.96-3.92v-81.01C159.37,161.66,156.36,160.52,153.89,161.94 M340.27,357.14l-7.49-3.43
	c-7.49-3.44-11.55-5.61-11.55-11.39c0-7.16,7.02-9.49,14.82-9.49c6.7,0,12.33,1.24,18.24,3.27c0.32-1.72,0.48-3.59,0.48-5.31
	c0-1.56-0.16-3.26-0.48-4.67c-4.37-2.19-12.3-3.76-19.94-3.76c-14.04,0-25.9,7.96-25.9,19.64c0,10,4.2,15.75,17.92,21.69l5.79,2.49
	c8.89,3.89,12.33,7.16,12.33,13.24c0,8.29-7.81,11.07-15.3,11.07c-7.95,0-14.96-1.55-21.98-4.35c-0.46,1.56-0.62,3.27-0.62,5.14
	c0,1.72,0.15,3.43,0.62,5.16c5.93,2.95,13.57,4.52,23.71,4.52c14.67,0,26.51-8.29,26.51-21.38
	C357.43,368.84,351.96,362.46,340.27,357.14 M124.01,53.44c-15.24,0-31.93,1.39-48.39,4.19c16.67-21.39,43.1-35.2,72.58-35.2
	c21.75,0,43.51,8.19,58.15,20.41c2.66,2.2,4.69,2.39,6.72,0.39c2.02-1.99,1.82-4-0.42-6.6c-19.1-22.18-47.17-37.21-80.32-36.61
	c-43.31,0.82-80.11,28.2-94.13,66.23c-12.82,3.99-24.6,8.81-34.98,14.62c-2.85,1.59-3.85,3.59-2.85,6c1.02,2.19,3.06,3,5.91,2.19
	c8.96-2.6,18.09-4.79,27.66-6.8c-1.04,5.01-1.64,10.21-1.64,15.6c-0.81,35.01,17.88,68.22,46.77,86.42c2.83,1.8,5.28,1.8,6.91-0.39
	c1.62-2.19,1.41-4.2-1.03-6.39c-18.3-16.42-28.47-40.8-28.47-65.03c0-12.21,2.44-24.01,7.12-34.59c9.56-0.82,19.93-1.42,31.32-1.42
	c74,0,136.44,24.4,136.44,56.42c0,16.19-20.54,32.41-44.94,43.21c-5.9,2.61-6.51,4.39-5.7,7c0.81,2.39,3.46,3.2,6.49,2.2
	c42.71-14,75.05-37.03,75.05-64.82C262.28,82.66,201.27,53.44,124.01,53.44 M411.68,192.16c0-34.47-16.03-55.84-49.05-55.84
	c-8.74,0-17.22,1.95-22.58,4.62v-53.9c-8.5,3.17-17.47,7.52-25,13.59c-3.89,3.17-5.1,6.33-5.1,10.95V244.6
	c8.01,3.39,24.28,6.31,39.82,6.31C389.1,250.92,411.68,226.86,411.68,192.16 M340.06,164.72c4.13-2.18,9.95-3.38,17.49-3.38
	c15.05,0,23.06,10.42,23.06,30.09c0,20.65-9.47,34.95-29.13,34.95c-3.16,0-8.02,0-11.42-1.2V164.72z M635.1,322.37
	c-20.43,0-33.38,15.9-33.38,39.62c0,24.01,13.42,38.99,36.48,38.99c8.42,0,17.01-1.72,22.3-4.07c0.31-1.55,0.47-3.27,0.47-5
	c0-1.7-0.16-3.42-0.47-4.98c-6.7,2.2-13.57,3.76-21.36,3.76c-15.59,0-24.17-9.97-24.95-26.22h50.38c0.29-1.87,0.46-6.23,0.46-8.41
	C665.03,335.31,652.88,322.37,635.1,322.37 M614.36,354.81c1.08-14.03,9.65-22.46,20.58-22.46c11.54,0,17.94,9.36,17.94,22.46
	H614.36z M778.25,135.85c-32.54,0-52.42,21.85-52.42,58.26c0,36.43,21.1,56.81,57.28,56.81c12.38,0,25.72-2.19,34.23-6.31
	c1.71-7.05,1.71-16.28,0-23.31c-11.17,3.16-20.64,5.09-31.08,5.09c-16.75,0-28.41-6.3-30.83-24.02h68.46
	c0.98-2.68,1.22-11.66,1.22-15.31C825.11,154.28,806.65,135.85,778.25,135.85 M755.43,180.27c2.18-13.35,10.19-21.37,22.33-21.37
	c13.6,0,18.94,9.22,19.43,21.37H755.43z M894.07,183.19l-12.15-5.1c-7.03-2.93-11.17-5.35-11.17-9.97c0-7.04,6.3-8.5,14.56-8.5
	c8.25,0,16.75,0.97,28.41,4.61c1.46-7.99,1.46-15.52,0-22.57c-7.28-3.89-20.88-5.82-32.77-5.82c-23.31,0-41.04,12.62-41.04,31.57
	c0,16.98,7.29,25.48,27.7,33.73l9.44,3.88c9,3.65,11.67,5.84,11.67,11.67c0,8.74-8.75,10.18-16.03,10.18
	c-12.14,0-21.37-2.41-33-6.55c-1.96,7.05-1.96,16.28,0,23.57c9.94,5.33,23.54,7.03,37.87,7.03c23.06,0,41.5-12.15,41.5-34
	C919.05,198.96,911.3,190.47,894.07,183.19 M987.76,226.14c-15.05,0-25-11.9-25-32.76c0-19.91,8-32.79,25.24-32.79
	c7.28,0,12.37,1.21,19.17,3.89c1.96-6.78,5.58-14.57,10.68-21.09c-9.47-4.89-18.69-7.54-33.74-7.54
	c-33.26,0-52.44,23.53-52.44,57.54c0,35.19,19.68,57.53,53.65,57.53c12.39,0,23.8-2.19,33-7.29c-4.1-5.35-8.72-12.63-11.4-21.11
	C998.44,225.89,994.8,226.14,987.76,226.14 M1071.99,135.85c-33.74,0-52.67,23.06-52.67,57.76c0,35.21,19.9,57.31,52.67,57.31
	c33.98,0,52.93-22.59,52.93-57.31C1124.93,158.67,1105.98,135.85,1071.99,135.85 M1071.99,226.64c-16.74,0-21.84-13.6-21.84-33.03
	c0-18.94,5.1-33.49,21.84-33.49c17.23,0,22.1,14.08,22.1,33.49C1094.09,214.01,1088.51,226.64,1071.99,226.64 M543.98,135.85
	c-11.89-0.24-22.32,1.21-32.53,3.64c-1.93,6.8-1.71,16.75,0,23.79c12.62-2.92,19.67-3.16,27.69-3.16c15.53,0,23.04,6.32,23.04,19.18
	v1.2c-4.6-0.47-10.18-0.96-14.07-0.96c-25.73,0-47.81,9.23-47.81,33.98c0,27.91,19.89,37.4,48.79,37.4
	c13.59,0,28.39-2.43,42.01-6.55v-62.88C591.09,151.36,574.81,136.57,543.98,135.85 M562.18,226.14c-1.69,0.5-9.2,1.22-12.85,1.22
	c-13.85,0-21.37-4.12-21.37-13.84c0-9.71,7.51-13.59,21.37-13.59c4.61,0,9.96,0.48,12.85,0.73V226.14z M573.62,299.45v24.49
	c-4.37-1.12-9.03-1.57-13.87-1.57c-22.62,0-37.59,15.6-37.59,40.54c0,24.95,14.66,38.22,36.8,38.22c10.46,0,20.75-2.35,27.59-4.67
	V287.88c-3.58,1.42-7.63,3.46-10.59,5.97C574.39,295.25,573.62,296.8,573.62,299.45 M573.62,388.65c-5.16,1.39-9.98,2.03-14.17,2.03
	c-15.47,0-24.18-10.3-24.18-27.77c0-20.11,9.98-30.07,25.1-30.07c5.3,0,9.83,0.61,13.25,1.55V388.65z M494.06,323.6v65.04
	c-4.51,1.08-9.67,1.85-15.89,1.85c-14.52,0-22.16-7.79-22.16-24.77V323.6c-1.72-0.31-3.89-0.61-6.23-0.61c-2.34,0-5,0.3-6.72,0.61
	v42.59c0,23.08,12.16,34.78,34.33,34.78c10.11,0,20.56-1.89,29.62-4.37v-73c-1.71-0.31-4.06-0.61-6.39-0.61
	C498.28,322.99,495.77,323.29,494.06,323.6 M678.72,111.58v26.45c-5.34-1.47-10.94-1.72-15.77-1.72
	c-33.26,0-55.84,22.35-55.84,58.02c0,36.41,22.09,56.58,56.56,56.58c15.78,0,31.32-2.19,45.14-6.79V87.04
	c-8.49,3.17-17.46,7.52-25,13.59C679.92,103.8,678.72,106.96,678.72,111.58 M678.72,224.69c-5.1,1.45-8.76,1.69-12.88,1.69
	c-19.9,0-27.65-13.1-27.65-32.05c0-21.11,7.75-33.98,27.42-33.98c5.82,0,9.47,0.73,13.12,1.71V224.69z M483,293.04l-17.79,19.03
	c1.89,0.32,3.89,0.49,5.77,0.49c1.86,0,3.9-0.17,5.61-0.49l20.43-19.03c-2.18-0.3-4.68-0.62-7.18-0.62
	C487.51,292.42,485.17,292.74,483,293.04"/>
</svg>
