<svg version="1.1" id="Layer_1" xmlns="http://www.w3.org/2000/svg" xmlns:xlink="http://www.w3.org/1999/xlink" x="0px" y="0px"
	 width="100%" viewBox="0 0 472 472" enable-background="new 0 0 472 472" xml:space="preserve">
<path fill="#FFFFFF" opacity="1.000000" stroke="none" 
	d="
M267.000000,473.000000 
	C178.000000,473.000000 89.500000,473.000000 1.000000,473.000000 
	C1.000000,315.666656 1.000000,158.333328 1.000000,1.000000 
	C158.333328,1.000000 315.666656,1.000000 473.000000,1.000000 
	C473.000000,158.333328 473.000000,315.666656 473.000000,473.000000 
	C404.500000,473.000000 336.000000,473.000000 267.000000,473.000000 
M20.033630,248.399094 
	C20.033630,248.399094 19.966110,248.864746 19.413029,249.187744 
	C18.820301,250.484863 18.227575,251.781982 17.421152,253.546768 
	C25.467232,257.567871 33.212585,261.438690 41.005909,266.024109 
	C41.111153,266.489105 41.216400,266.954102 41.281178,268.060333 
	C41.216503,268.700043 41.151833,269.339783 40.518894,270.476105 
	C40.855057,272.680054 41.191216,274.883972 41.730618,277.970703 
	C41.833817,281.310638 41.937019,284.650543 41.500477,288.431152 
	C42.025066,289.607635 42.549660,290.784149 43.848724,291.963776 
	C45.133457,291.909332 46.418194,291.854919 48.607815,291.894287 
	C49.212494,291.848053 49.817173,291.801849 51.174469,291.894714 
	C53.108440,292.291107 55.042416,292.687500 57.123367,293.700348 
	C57.727051,294.546387 58.330734,295.392395 58.973289,296.916046 
	C59.541145,297.975281 60.108997,299.034485 61.060757,300.629211 
	C62.513054,300.886292 64.276527,301.804657 65.366470,301.291718 
	C71.789253,298.269165 78.055229,294.913422 85.128860,291.813416 
	C86.099731,291.538116 87.070595,291.262848 88.720787,291.167511 
	C94.798195,294.380127 100.954796,297.454254 106.918678,300.865326 
	C109.782066,302.502991 111.413780,301.861725 113.162704,298.890167 
	C113.486122,297.884583 113.809540,296.879028 114.697708,295.521820 
	C115.191559,294.556427 115.685417,293.591034 116.884148,292.182922 
	C118.763351,292.026825 120.642563,291.870728 123.427505,291.851196 
	C124.037109,291.844788 124.646713,291.838379 126.068909,291.943298 
	C128.943298,292.394135 130.859894,291.812897 131.000946,288.295502 
	C131.272659,281.519623 131.786545,274.753479 132.630234,267.639343 
	C132.771652,266.931885 132.913071,266.224396 133.846970,265.674591 
	C141.199631,262.030914 148.552307,258.387238 155.904968,254.743546 
	C156.012405,254.116730 156.119843,253.489899 156.227264,252.863083 
	C154.545883,252.225662 152.864487,251.588242 151.090225,250.000824 
	C151.067200,249.683472 151.044189,249.366119 151.608139,248.542206 
	C151.689972,245.110840 151.771820,241.679474 151.946732,237.596573 
	C151.984665,237.160187 152.022614,236.723785 152.805298,236.340790 
	C153.924973,235.153809 155.044632,233.966827 156.457230,232.469299 
	C149.006714,227.895279 142.279312,223.679443 135.441360,219.651260 
	C134.295578,218.976273 132.670639,219.114609 131.102676,217.900864 
	C131.058975,217.573761 131.015289,217.246643 131.537476,216.299484 
	C131.365051,209.718811 130.982452,203.134567 131.094711,196.558746 
	C131.168503,192.235458 129.678116,190.356583 124.493187,191.111923 
	C123.947678,191.100174 123.402161,191.088425 122.121620,190.897659 
	C120.402802,190.931717 118.683990,190.965775 117.025024,190.211716 
	C116.016861,188.809448 115.008698,187.407166 113.928619,185.369400 
	C113.546257,184.896011 113.163895,184.422623 112.570686,183.330170 
	C111.887497,182.085190 111.204300,180.840225 110.356201,179.294739 
	C102.674652,183.303818 95.332352,187.135834 87.458939,190.418503 
	C86.456688,190.354156 85.454445,190.289810 83.831429,190.048691 
	C77.740211,186.849304 71.599594,183.739105 65.582123,180.406570 
	C63.179050,179.075745 61.666634,179.378479 60.049679,182.055206 
	C60.034752,183.325089 60.019821,184.594986 59.304962,185.872330 
	C58.203362,187.248550 57.101757,188.624771 55.179134,189.703644 
	C53.731686,189.777420 52.284241,189.851196 50.118980,189.936096 
	C49.401958,189.963013 48.684933,189.989929 47.123127,189.983063 
	C42.854019,189.066147 42.698513,192.006546 41.874161,195.187881 
	C41.928448,197.127975 41.982738,199.068085 42.110382,201.920486 
	C41.911850,205.268219 41.713322,208.615936 40.904247,212.166611 
	C41.244267,213.954147 41.584286,215.741669 41.225201,217.298141 
	C33.457989,221.524078 25.690777,225.750000 17.525915,230.192291 
	C18.557365,232.183319 19.281509,233.581146 20.022038,235.606216 
	C20.464962,236.433350 20.907888,237.260468 21.731153,238.656311 
	C22.203709,239.435608 22.676264,240.214890 23.067701,241.700668 
	C22.595655,242.767059 22.123608,243.833450 21.037355,245.075226 
	C20.751223,246.034012 20.465092,246.992783 20.033630,248.399094 
M86.974152,295.382233 
	C86.818565,295.133972 86.662979,294.885681 86.507393,294.637421 
	C86.333763,295.036926 86.160133,295.436462 85.284927,296.043579 
	C84.383911,296.444366 82.945816,296.626740 82.678162,297.285034 
	C81.704597,299.679443 79.965248,302.688324 80.716919,304.599243 
	C81.476204,306.529541 84.990601,308.668762 87.040886,308.437408 
	C89.119095,308.202911 91.953995,305.476562 92.551598,303.314758 
	C93.650932,299.337952 90.613564,297.076630 86.974152,295.382233 
M421.450928,231.867142 
	C420.188080,228.969452 418.442474,226.181122 417.756409,223.152771 
	C415.978455,215.304855 411.252747,213.190125 403.675079,214.036484 
	C400.112488,214.434402 398.912537,215.452393 398.257385,218.771378 
	C396.034454,230.033157 393.492310,241.231750 391.092468,252.458862 
	C390.337952,255.988770 389.647675,259.532410 388.778778,263.803040 
	C391.906708,263.803040 394.402527,263.495819 396.793457,263.866150 
	C401.974731,264.668701 404.121643,262.707611 404.834015,257.463379 
	C405.769714,250.574997 407.653503,243.815384 409.129578,237.000397 
	C412.783600,242.939819 415.945831,248.677063 417.726135,254.815125 
	C419.928741,262.409119 424.150879,264.992950 431.839417,263.979126 
	C435.193359,263.536865 436.740204,262.937286 437.432190,259.421509 
	C440.066895,246.035233 443.047333,232.717102 445.877197,219.368973 
	C446.200378,217.844574 446.389038,216.291687 446.725189,214.229996 
	C442.519501,214.229996 439.012482,213.915543 435.611816,214.379898 
	C434.188232,214.574265 432.202850,216.202271 431.827179,217.554672 
	C430.271545,223.155136 429.240479,228.900864 428.002106,234.590057 
	C427.546600,236.682709 427.050568,238.766525 426.573029,240.854370 
	C426.102966,240.830338 425.632904,240.806320 425.162842,240.782288 
	C424.031891,238.044266 422.900940,235.306244 421.450928,231.867142 
M240.412109,214.227783 
	C238.248337,214.232086 236.049316,214.009979 233.936035,214.338776 
	C232.920105,214.496811 231.415039,215.563751 231.238190,216.441971 
	C229.237015,226.379517 227.055267,236.309204 225.757828,246.349030 
	C225.004501,252.178375 227.273209,257.530762 232.395477,261.134338 
	C245.587296,270.414978 266.837769,263.647827 271.510406,248.335556 
	C273.931061,240.402908 275.274414,232.140488 277.078644,224.021332 
	C277.750427,220.998169 278.348450,217.958618 279.125427,214.229004 
	C274.649780,214.229004 270.857452,214.370880 267.081818,214.181076 
	C264.387695,214.045654 263.237183,215.054749 262.768372,217.702805 
	C261.666748,223.925613 260.416962,230.129059 258.985321,236.284088 
	C258.086670,240.147812 257.125397,244.078888 255.506409,247.670609 
	C253.815216,251.422470 248.664047,252.965317 244.700241,251.571625 
	C240.253784,250.008209 240.531021,246.391418 241.186478,242.866119 
	C242.189713,237.470261 243.483704,232.128906 244.623291,226.757843 
	C245.464340,222.793823 246.255936,218.819321 247.196945,214.228012 
	C244.594742,214.228012 242.963242,214.228012 240.412109,214.227783 
M313.704681,232.902527 
	C311.554810,232.011841 309.183777,231.437805 307.320648,230.136536 
	C305.640076,228.962769 304.515472,226.992935 303.145691,225.374191 
	C305.433441,224.427246 307.722260,222.768082 310.008636,222.771393 
	C311.669464,222.773804 313.359131,224.934708 314.973877,226.211670 
	C315.911133,226.952866 316.720062,228.548904 317.596527,228.556015 
	C321.659943,228.588959 325.726807,228.200394 329.919891,227.955322 
	C329.407196,220.971283 325.956482,216.999710 320.268463,215.156769 
	C312.968414,212.791504 305.503723,212.636459 298.187653,215.195496 
	C292.297333,217.255844 288.839691,221.548904 288.346710,227.793289 
	C287.862854,233.921539 291.317200,237.829987 296.543427,240.265625 
	C300.610016,242.160828 304.952362,243.495255 308.910156,245.576950 
	C310.365540,246.342438 311.998230,248.626831 311.859436,250.053940 
	C311.715759,251.530945 309.768005,253.404083 308.177704,254.064468 
	C302.829285,256.285431 299.348999,253.921677 296.264954,246.257233 
	C291.947144,246.597061 287.524567,246.945129 283.149231,247.289474 
	C282.491882,255.141052 285.795074,261.165009 292.788177,262.866913 
	C298.180298,264.179230 303.987183,264.665039 309.527863,264.294800 
	C319.150879,263.651764 325.645660,257.690552 326.771667,249.741669 
	C327.778931,242.630905 323.888275,237.421646 313.704681,232.902527 
M352.950348,221.276321 
	C345.073547,235.212997 337.196747,249.149658 328.915100,263.802582 
	C333.602631,263.802582 337.108826,263.566132 340.568237,263.867004 
	C344.257965,264.187866 346.475311,262.992157 347.797394,259.421173 
	C348.325714,257.994232 349.986420,256.114349 351.273071,255.997452 
	C355.853088,255.581314 360.493988,255.834839 365.175629,255.834839 
	C365.615936,258.678131 365.967407,260.947845 366.359222,263.478088 
	C371.245331,263.478088 375.974792,263.478088 381.333923,263.478088 
	C378.737549,247.491043 376.220734,231.913452 373.636963,216.346985 
	C373.520111,215.643036 372.815063,214.489105 372.354126,214.474274 
	C367.534454,214.319366 362.602142,213.772003 357.937439,214.625534 
	C356.086609,214.964203 354.825836,218.527725 352.950348,221.276321 
M190.791351,251.453995 
	C192.717499,241.940414 191.834686,244.060898 199.674698,243.811386 
	C201.670090,243.747864 203.670441,243.847092 205.666473,243.794281 
	C216.538559,243.506638 213.910950,245.824661 216.592422,234.968277 
	C216.657120,234.706299 216.398651,234.364487 216.069839,233.434921 
	C209.392197,233.434921 202.489914,233.434921 195.623367,233.434921 
	C195.421967,225.427155 195.873581,224.918442 202.644623,224.911575 
	C207.138824,224.907013 211.656525,225.165863 216.113541,224.758194 
	C217.528381,224.628784 219.319168,222.984726 219.980118,221.582367 
	C220.924301,219.579147 220.987167,217.160538 221.490768,214.590973 
	C208.446091,214.590973 195.927597,214.590973 183.185104,214.590973 
	C179.689713,230.974457 176.260971,247.045502 172.831879,263.118164 
	C186.177368,265.885834 187.780930,264.920837 190.481888,252.762100 
	C190.517899,252.600037 190.575974,252.442886 190.791351,251.453995 
M136.487823,271.196564 
	C136.167252,277.181793 139.720367,281.141724 144.271042,279.223419 
	C146.404449,278.324066 148.754913,275.471313 148.990021,273.286743 
	C149.192780,271.402893 146.982452,268.378662 145.045074,267.341309 
	C141.727493,265.564941 138.673203,267.155670 136.487823,271.196564 
M141.115051,205.589203 
	C136.228516,208.300201 134.563492,212.407150 137.761261,215.393097 
	C139.484940,217.002579 143.298004,218.311646 145.043289,217.457458 
	C147.102066,216.449844 149.107132,212.927933 149.047501,210.548416 
	C148.953125,206.782440 145.730179,205.100479 141.115051,205.589203 
M84.296005,172.668106 
	C78.990112,175.718246 78.012833,181.376617 82.694206,183.786819 
	C84.625145,184.780945 88.186317,184.767471 89.814873,183.579468 
	C91.425629,182.404419 92.392662,179.059387 92.108406,176.864883 
	C91.638756,173.239120 88.578735,172.030853 84.296005,172.668106 
M28.933119,278.841492 
	C33.255714,279.380066 36.133690,277.643311 36.751202,273.257355 
	C37.221619,269.916107 35.595303,267.390625 32.300533,266.430084 
	C28.786224,265.405548 25.951084,266.772522 24.552427,270.068390 
	C22.908768,273.941589 24.647354,276.758698 28.933119,278.841492 
M36.329319,206.216766 
	C33.837120,205.448898 31.284630,203.974564 28.875509,204.180161 
	C27.447649,204.302017 25.280222,207.018753 25.184412,208.669617 
	C25.061584,210.786102 26.116333,214.015137 27.708576,214.914062 
	C29.564217,215.961700 33.607033,215.977432 34.784500,214.689301 
	C36.378956,212.945023 36.151428,209.535263 36.329319,206.216766 
z"/>
<path fill="#3858A4" opacity="1.000000" stroke="none" 
	d="
M421.610474,232.217682 
	C422.900940,235.306244 424.031891,238.044266 425.162842,240.782288 
	C425.632904,240.806320 426.102966,240.830338 426.573029,240.854370 
	C427.050568,238.766525 427.546600,236.682709 428.002106,234.590057 
	C429.240479,228.900864 430.271545,223.155136 431.827179,217.554672 
	C432.202850,216.202271 434.188232,214.574265 435.611816,214.379898 
	C439.012482,213.915543 442.519501,214.229996 446.725189,214.229996 
	C446.389038,216.291687 446.200378,217.844574 445.877197,219.368973 
	C443.047333,232.717102 440.066895,246.035233 437.432190,259.421509 
	C436.740204,262.937286 435.193359,263.536865 431.839417,263.979126 
	C424.150879,264.992950 419.928741,262.409119 417.726135,254.815125 
	C415.945831,248.677063 412.783600,242.939819 409.129578,237.000397 
	C407.653503,243.815384 405.769714,250.574997 404.834015,257.463379 
	C404.121643,262.707611 401.974731,264.668701 396.793457,263.866150 
	C394.402527,263.495819 391.906708,263.803040 388.778778,263.803040 
	C389.647675,259.532410 390.337952,255.988770 391.092468,252.458862 
	C393.492310,241.231750 396.034454,230.033157 398.257385,218.771378 
	C398.912537,215.452393 400.112488,214.434402 403.675079,214.036484 
	C411.252747,213.190125 415.978455,215.304855 417.756409,223.152771 
	C418.442474,226.181122 420.188080,228.969452 421.610474,232.217682 
z"/>
<path fill="#3858A4" opacity="1.000000" stroke="none" 
	d="
M240.871933,214.227905 
	C242.963242,214.228012 244.594742,214.228012 247.196945,214.228012 
	C246.255936,218.819321 245.464340,222.793823 244.623291,226.757843 
	C243.483704,232.128906 242.189713,237.470261 241.186478,242.866119 
	C240.531021,246.391418 240.253784,250.008209 244.700241,251.571625 
	C248.664047,252.965317 253.815216,251.422470 255.506409,247.670609 
	C257.125397,244.078888 258.086670,240.147812 258.985321,236.284088 
	C260.416962,230.129059 261.666748,223.925613 262.768372,217.702805 
	C263.237183,215.054749 264.387695,214.045654 267.081818,214.181076 
	C270.857452,214.370880 274.649780,214.229004 279.125427,214.229004 
	C278.348450,217.958618 277.750427,220.998169 277.078644,224.021332 
	C275.274414,232.140488 273.931061,240.402908 271.510406,248.335556 
	C266.837769,263.647827 245.587296,270.414978 232.395477,261.134338 
	C227.273209,257.530762 225.004501,252.178375 225.757828,246.349030 
	C227.055267,236.309204 229.237015,226.379517 231.238190,216.441971 
	C231.415039,215.563751 232.920105,214.496811 233.936035,214.338776 
	C236.049316,214.009979 238.248337,214.232086 240.871933,214.227905 
z"/>
<path fill="#3858A4" opacity="1.000000" stroke="none" 
	d="
M314.055237,233.043762 
	C323.888275,237.421646 327.778931,242.630905 326.771667,249.741669 
	C325.645660,257.690552 319.150879,263.651764 309.527863,264.294800 
	C303.987183,264.665039 298.180298,264.179230 292.788177,262.866913 
	C285.795074,261.165009 282.491882,255.141052 283.149231,247.289474 
	C287.524567,246.945129 291.947144,246.597061 296.264954,246.257233 
	C299.348999,253.921677 302.829285,256.285431 308.177704,254.064468 
	C309.768005,253.404083 311.715759,251.530945 311.859436,250.053940 
	C311.998230,248.626831 310.365540,246.342438 308.910156,245.576950 
	C304.952362,243.495255 300.610016,242.160828 296.543427,240.265625 
	C291.317200,237.829987 287.862854,233.921539 288.346710,227.793289 
	C288.839691,221.548904 292.297333,217.255844 298.187653,215.195496 
	C305.503723,212.636459 312.968414,212.791504 320.268463,215.156769 
	C325.956482,216.999710 329.407196,220.971283 329.919891,227.955322 
	C325.726807,228.200394 321.659943,228.588959 317.596527,228.556015 
	C316.720062,228.548904 315.911133,226.952866 314.973877,226.211670 
	C313.359131,224.934708 311.669464,222.773804 310.008636,222.771393 
	C307.722260,222.768082 305.433441,224.427246 303.145691,225.374191 
	C304.515472,226.992935 305.640076,228.962769 307.320648,230.136536 
	C309.183777,231.437805 311.554810,232.011841 314.055237,233.043762 
z"/>
<path fill="#3858A4" opacity="1.000000" stroke="none" 
	d="
M353.123383,220.949677 
	C354.825836,218.527725 356.086609,214.964203 357.937439,214.625534 
	C362.602142,213.772003 367.534454,214.319366 372.354126,214.474274 
	C372.815063,214.489105 373.520111,215.643036 373.636963,216.346985 
	C376.220734,231.913452 378.737549,247.491043 381.333923,263.478088 
	C375.974792,263.478088 371.245331,263.478088 366.359222,263.478088 
	C365.967407,260.947845 365.615936,258.678131 365.175629,255.834839 
	C360.493988,255.834839 355.853088,255.581314 351.273071,255.997452 
	C349.986420,256.114349 348.325714,257.994232 347.797394,259.421173 
	C346.475311,262.992157 344.257965,264.187866 340.568237,263.867004 
	C337.108826,263.566132 333.602631,263.802582 328.915100,263.802582 
	C337.196747,249.149658 345.073547,235.212997 353.123383,220.949677 
M363.961456,237.340149 
	C363.687103,234.688202 363.412750,232.036255 363.138428,229.384308 
	C362.744507,229.344009 362.350586,229.303711 361.956696,229.263412 
	C359.557373,234.287888 357.158081,239.312347 354.629059,244.608505 
	C358.502991,244.608505 361.342285,244.608505 364.416260,244.608505 
	C364.251007,242.135101 364.119781,240.171585 363.961456,237.340149 
z"/>
<path fill="#3A5AA5" opacity="1.000000" stroke="none" 
	d="
M190.707550,251.868713 
	C190.575974,252.442886 190.517899,252.600037 190.481888,252.762100 
	C187.780930,264.920837 186.177368,265.885834 172.831879,263.118164 
	C176.260971,247.045502 179.689713,230.974457 183.185104,214.590973 
	C195.927597,214.590973 208.446091,214.590973 221.490768,214.590973 
	C220.987167,217.160538 220.924301,219.579147 219.980118,221.582367 
	C219.319168,222.984726 217.528381,224.628784 216.113541,224.758194 
	C211.656525,225.165863 207.138824,224.907013 202.644623,224.911575 
	C195.873581,224.918442 195.421967,225.427155 195.623367,233.434921 
	C202.489914,233.434921 209.392197,233.434921 216.069839,233.434921 
	C216.398651,234.364487 216.657120,234.706299 216.592422,234.968277 
	C213.910950,245.824661 216.538559,243.506638 205.666473,243.794281 
	C203.670441,243.847092 201.670090,243.747864 199.674698,243.811386 
	C191.834686,244.060898 192.717499,241.940414 190.707550,251.868713 
z"/>
<path fill="#FCFDFE" opacity="1.000000" stroke="none" 
	d="
M88.041466,290.987549 
	C87.070595,291.262848 86.099731,291.538116 84.985489,291.380035 
	C84.704453,288.883606 87.423378,285.884003 82.985077,284.907471 
	C83.007874,284.141479 83.015434,283.703979 83.358170,283.017578 
	C84.153717,282.101440 85.008331,281.437988 85.014900,280.766296 
	C85.103622,271.689270 85.074448,262.611084 85.074448,252.875580 
	C82.966530,253.361832 81.490242,253.702393 79.744827,254.065918 
	C79.296021,254.076935 79.116348,254.064941 78.862762,253.700775 
	C77.194618,251.915543 75.600395,250.482513 73.993378,248.672867 
	C73.948853,247.794830 73.917122,247.293411 74.008743,246.438538 
	C73.422836,244.056808 72.713585,242.028519 72.160149,239.809311 
	C72.523651,239.351288 72.786713,239.160477 73.380051,239.015335 
	C73.869392,238.351288 74.083824,237.717896 74.266296,236.758484 
	C74.201508,236.216568 74.168671,236.000656 74.275764,235.533447 
	C74.615257,234.545990 74.814827,233.809845 75.338455,233.009186 
	C76.535789,231.969574 77.409065,230.994476 78.678619,230.015930 
	C81.081299,229.457626 83.087692,228.902756 85.136993,227.858810 
	C85.200706,219.466064 85.292419,211.561371 85.179733,203.659592 
	C85.158371,202.161362 84.326378,200.674698 83.990112,198.896942 
	C84.405937,198.069138 84.700073,197.527084 85.105591,196.563110 
	C84.962051,194.169296 84.707123,192.197372 84.452194,190.225464 
	C85.454445,190.289810 86.456688,190.354156 87.657043,191.125565 
	C88.625755,193.501862 85.265938,197.910934 90.952255,196.934631 
	C91.104172,197.865189 91.172150,198.236221 90.998672,198.801666 
	C89.805534,199.991028 88.052757,200.966263 88.027763,201.983917 
	C87.810158,210.844116 87.902168,219.711899 87.902168,228.799942 
	C90.673805,228.970016 92.785309,229.099594 94.936943,229.573486 
	C96.309471,230.883530 97.641861,231.849274 99.001488,233.218521 
	C99.063011,234.160233 99.097298,234.698425 98.958755,235.589401 
	C99.528038,237.829880 100.270142,239.717575 100.906342,241.335876 
	C100.277176,243.248627 99.692162,245.027176 99.081360,247.205292 
	C99.026962,248.137863 98.998352,248.670868 98.603348,249.141144 
	C97.060341,250.730606 95.883713,252.382751 94.641312,254.003448 
	C94.575539,253.972015 94.429741,253.970795 94.147568,253.630463 
	C92.114510,253.137360 90.363632,252.984589 87.930191,252.772263 
	C87.930191,262.063538 87.855957,270.821869 88.026627,279.575439 
	C88.047340,280.638031 89.387604,281.674866 90.081604,283.094055 
	C90.034225,283.960022 90.021553,284.455566 89.577820,284.948914 
	C88.778328,286.960327 88.409897,288.973938 88.041466,290.987549 
z"/>
<path fill="#405EA7" opacity="1.000000" stroke="none" 
	d="
M99.107147,246.805710 
	C99.692162,245.027176 100.277176,243.248627 100.906342,241.335876 
	C100.270142,239.717575 99.528038,237.829880 99.314774,235.533539 
	C103.426521,233.357559 107.326759,232.033646 110.532677,229.739456 
	C120.025330,222.946472 128.987106,222.464157 138.116867,230.403442 
	C139.841034,231.902802 142.649185,232.155609 144.968918,232.995865 
	C144.980682,233.008102 145.010971,233.023788 144.843491,233.394470 
	C145.776855,234.176285 146.877701,234.587402 147.986404,235.005371 
	C147.994263,235.012207 148.013626,235.019836 147.989532,235.425568 
	C148.635864,235.887985 149.306274,235.944687 149.984604,236.003143 
	C149.992508,236.004913 149.998978,236.019547 149.767303,236.316650 
	C150.308319,237.158539 151.080978,237.703323 151.853653,238.248108 
	C151.771820,241.679474 151.689972,245.110840 150.960510,248.817322 
	C147.866150,250.352570 145.419403,251.612717 142.616394,252.941437 
	C137.590302,255.198334 133.016037,257.641754 128.202026,259.445099 
	C126.364555,260.133453 123.646561,260.012756 121.898399,259.132111 
	C114.188133,255.247986 106.685188,250.952316 99.107147,246.805710 
M110.330704,236.834808 
	C107.776344,238.173111 105.221985,239.511429 101.886307,241.259109 
	C109.738922,245.769409 116.611206,249.788910 123.577156,253.638901 
	C124.607910,254.208588 126.304611,254.482361 127.314224,254.035950 
	C134.668579,250.784164 141.925903,247.312927 149.968277,243.558929 
	C145.831894,241.155869 142.168564,239.688629 139.330597,237.257767 
	C129.965790,229.236374 120.652252,228.836655 110.330704,236.834808 
z"/>
<path fill="#405EA7" opacity="1.000000" stroke="none" 
	d="
M90.116318,282.723633 
	C89.387604,281.674866 88.047340,280.638031 88.026627,279.575439 
	C87.855957,270.821869 87.930191,262.063538 87.930191,252.772263 
	C90.363632,252.984589 92.114510,253.137360 93.950790,254.065796 
	C93.989967,261.302155 94.119064,267.770874 93.822304,274.220032 
	C93.677605,277.364746 94.924789,278.947906 97.550247,280.377350 
	C103.786980,283.772949 109.852249,287.483429 116.031036,291.456909 
	C116.109932,292.106628 116.144600,292.366150 116.179276,292.625641 
	C115.685417,293.591034 115.191559,294.556427 114.096573,295.470306 
	C109.901939,293.509644 106.308441,291.600525 102.714943,289.691376 
	C102.492996,290.122406 102.271049,290.553436 102.049103,290.984467 
	C105.588394,293.691437 109.127678,296.398376 112.666969,299.105347 
	C111.413780,301.861725 109.782066,302.502991 106.918678,300.865326 
	C100.954796,297.454254 94.798195,294.380127 88.381126,291.077515 
	C88.409897,288.973938 88.778328,286.960327 89.772095,285.215485 
	C91.800613,286.131958 93.203819,286.779694 94.840195,287.658936 
	C95.667557,288.154572 96.261742,288.418701 97.068787,288.950867 
	C98.914719,289.961182 100.547798,290.703491 102.180878,291.445801 
	C102.449028,290.945679 102.717178,290.445526 102.985336,289.945404 
	C101.036568,288.819153 99.087799,287.692871 96.970795,286.442902 
	C96.548111,286.196472 96.281990,286.160431 95.779648,285.946594 
	C93.742172,284.695923 91.929245,283.709778 90.116318,282.723633 
z"/>
<path fill="#4260A8" opacity="1.000000" stroke="none" 
	d="
M74.006172,249.049469 
	C75.600395,250.482513 77.194618,251.915543 78.887131,253.679840 
	C78.985428,254.011108 79.029129,253.963852 78.694649,253.885147 
	C77.789436,254.157135 77.218704,254.507843 76.314407,254.917953 
	C71.928413,257.207184 68.042435,259.848267 63.784950,261.571503 
	C57.222496,264.227692 54.348724,268.318695 55.657543,275.572083 
	C56.382267,279.588470 55.803303,283.825989 56.102989,287.942657 
	C56.181396,289.019684 57.347115,290.017578 57.899437,291.313904 
	C57.515732,292.078613 57.246063,292.581268 56.976387,293.083923 
	C55.042416,292.687500 53.108440,292.291107 50.749786,291.376434 
	C50.165920,282.742920 50.137062,274.621979 49.779373,266.515503 
	C49.647861,263.534973 50.862896,262.145203 53.340782,260.811432 
	C60.318069,257.055817 67.129410,252.991867 74.006172,249.049469 
z"/>
<path fill="#405EA7" opacity="1.000000" stroke="none" 
	d="
M78.282333,230.019379 
	C77.409065,230.994476 76.535789,231.969574 75.100594,232.799957 
	C73.772881,232.325836 73.007088,231.996414 71.954887,231.452667 
	C70.770187,231.496155 69.871910,231.753952 68.984482,232.004211 
	C68.995323,231.996689 68.987389,232.018661 69.404205,231.800247 
	C68.776787,230.480133 67.914879,229.064072 66.655357,228.333542 
	C62.225071,225.764038 57.507751,223.662140 53.222366,220.884430 
	C51.662663,219.873459 50.103924,217.469467 50.095173,215.693390 
	C50.052876,207.105331 50.538399,198.514694 50.836792,189.924957 
	C52.284241,189.851196 53.731686,189.777420 55.594898,190.086075 
	C56.010662,190.468506 55.980305,190.935165 56.014698,191.407654 
	C55.934978,198.523758 55.596218,205.176010 55.851246,211.805435 
	C55.922611,213.660522 57.294037,216.174667 58.844364,217.135193 
	C64.196892,220.451416 69.954102,223.107559 75.409462,226.269928 
	C76.668495,226.999771 77.340294,228.742676 78.282333,230.019379 
z"/>
<path fill="#405EA7" opacity="1.000000" stroke="none" 
	d="
M72.004341,240.000214 
	C72.713585,242.028519 73.422836,244.056808 73.654297,246.489136 
	C67.491608,250.023926 61.520088,252.738876 56.203342,256.403717 
	C51.002682,259.988556 46.529873,260.180328 41.202747,256.860138 
	C38.186314,254.980118 34.441299,254.269058 31.014339,253.019073 
	C31.004244,253.006622 30.978357,252.987534 31.046238,252.567123 
	C30.416399,252.101410 29.718678,252.056122 29.010563,252.004700 
	C29.000168,251.998581 28.982565,251.982056 29.142155,251.647049 
	C28.869720,251.210159 28.437696,251.108292 28.002966,251.003281 
	C28.000259,251.000153 27.993265,250.996872 27.964384,250.631088 
	C26.629164,249.848663 25.322824,249.432022 24.009373,249.008881 
	C24.002256,249.002365 23.985971,248.992020 24.098261,248.715134 
	C23.714184,248.159698 23.217817,247.881165 22.505505,247.300079 
	C22.076893,246.298309 21.864229,245.599075 21.651564,244.899841 
	C22.123608,243.833450 22.595655,242.767059 23.435795,241.349762 
	C24.240433,241.013519 24.676975,241.028214 25.073856,241.400391 
	C32.374115,245.696701 39.677174,249.708160 47.103325,253.477066 
	C47.974812,253.919342 49.665504,253.287827 50.735535,252.708878 
	C56.691044,249.486496 62.605194,246.182770 68.440613,242.749023 
	C69.245491,242.275436 69.534279,240.924774 70.385712,239.983582 
	C71.141068,239.991409 71.572708,239.995819 72.004341,240.000214 
z"/>
<path fill="#4260A8" opacity="1.000000" stroke="none" 
	d="
M94.896805,229.229156 
	C92.785309,229.099594 90.673805,228.970016 87.902168,228.799942 
	C87.902168,219.711899 87.810158,210.844116 88.027763,201.983917 
	C88.052757,200.966263 89.805534,199.991028 91.351990,198.700485 
	C92.809174,197.943787 93.671593,197.482697 94.601814,196.934387 
	C94.669617,196.847153 94.993393,196.547333 95.309708,196.415863 
	C96.777550,195.568802 97.929070,194.853210 99.435593,194.090530 
	C104.527245,191.363937 109.263885,188.684418 114.000526,186.004898 
	C115.008698,187.407166 116.016861,188.809448 117.047218,190.648697 
	C117.069412,191.085678 117.040916,191.465195 116.648178,191.397552 
	C111.328293,194.018539 106.591316,197.175232 101.424675,199.274368 
	C95.313553,201.757202 92.873680,205.525192 93.853157,212.094101 
	C94.637970,217.357452 94.655136,222.735260 94.994080,228.355011 
	C94.949059,228.841537 94.922935,229.035355 94.896805,229.229156 
z"/>
<path fill="#3D5CA6" opacity="1.000000" stroke="none" 
	d="
M117.040909,191.465195 
	C117.040916,191.465195 117.069412,191.085678 117.017288,191.042755 
	C118.683990,190.965775 120.402802,190.931717 122.502380,191.450394 
	C123.121704,200.098465 123.225578,208.201172 123.668457,216.285309 
	C123.833916,219.305588 122.601265,220.705643 120.071991,221.948730 
	C112.973816,225.437363 105.998207,229.175354 98.974251,232.815002 
	C97.641861,231.849274 96.309471,230.883530 94.936943,229.573486 
	C94.922935,229.035355 94.949059,228.841537 95.193008,228.071793 
	C101.787216,224.345688 108.268990,221.383865 114.467285,217.915451 
	C116.054840,217.027084 117.659988,214.553329 117.689590,212.781738 
	C117.808228,205.681824 117.310631,198.571609 117.040909,191.465195 
z"/>
<path fill="#3D5CA6" opacity="1.000000" stroke="none" 
	d="
M25.113520,241.042892 
	C24.676975,241.028214 24.240433,241.013519 23.476357,240.996521 
	C22.676264,240.214890 22.203709,239.435608 21.761406,238.061951 
	C29.679018,232.899628 37.637962,228.448898 45.414524,223.699524 
	C48.100483,222.059128 50.083710,222.397476 52.680923,223.840805 
	C57.991295,226.791901 63.538010,229.317703 68.987389,232.018661 
	C68.987389,232.018661 68.995323,231.996689 69.030777,232.269348 
	C69.388374,232.689697 69.710526,232.837402 70.231140,233.248917 
	C71.665016,234.270065 72.900429,235.027420 74.135841,235.784760 
	C74.168671,236.000656 74.201508,236.216568 73.944153,236.834061 
	C73.471016,237.839096 73.288078,238.442535 73.105133,239.045975 
	C72.786713,239.160477 72.523651,239.351288 72.160149,239.809326 
	C71.572708,239.995819 71.141068,239.991409 70.035706,239.923279 
	C63.980942,236.920303 58.449734,234.219635 53.270878,230.959259 
	C49.731178,228.730850 46.943516,228.661133 43.339973,230.927948 
	C37.467392,234.622147 31.209070,237.703140 25.113520,241.042892 
z"/>
<path fill="#3D5CA6" opacity="1.000000" stroke="none" 
	d="
M116.531708,292.404297 
	C116.144600,292.366150 116.109932,292.106628 116.408829,291.283264 
	C117.187447,283.338470 117.715332,275.960510 117.979385,268.573090 
	C118.014954,267.578033 116.957954,266.115387 116.007080,265.582031 
	C108.963966,261.631592 101.819618,257.861603 94.707092,254.034897 
	C95.883713,252.382751 97.060341,250.730606 98.788666,249.415756 
	C106.589386,253.794708 113.890747,257.747559 121.039429,261.959473 
	C122.333145,262.721710 123.851410,264.567749 123.819298,265.877960 
	C123.608040,274.495636 123.000221,283.103546 122.521767,291.714661 
	C120.642563,291.870728 118.763351,292.026825 116.531708,292.404297 
z"/>
<path fill="#3858A4" opacity="1.000000" stroke="none" 
	d="
M57.049881,293.392120 
	C57.246063,292.581268 57.515732,292.078613 58.121666,291.058167 
	C64.347778,287.188751 70.374336,284.047119 76.043648,280.356720 
	C77.730400,279.258728 79.248772,276.684631 79.403748,274.675781 
	C79.898254,268.265717 79.715675,261.803406 79.869080,255.034943 
	C79.967041,254.486725 79.990501,254.264832 80.013954,254.042938 
	C81.490242,253.702393 82.966530,253.361832 85.074448,252.875580 
	C85.074448,262.611084 85.103622,271.689270 85.014900,280.766296 
	C85.008331,281.437988 84.153717,282.101440 83.002594,283.070160 
	C82.200859,283.906219 82.089867,284.440826 81.989441,284.987732 
	C82.000000,285.000000 81.984978,284.971344 81.734299,284.624512 
	C80.961205,284.469727 80.438797,284.661774 79.561523,284.901245 
	C72.449242,288.711914 65.691826,292.475189 58.934418,296.238434 
	C58.330734,295.392395 57.727051,294.546387 57.049881,293.392120 
z"/>
<path fill="#3858A4" opacity="1.000000" stroke="none" 
	d="
M55.980301,190.935165 
	C55.980305,190.935165 56.010662,190.468506 56.005409,190.234741 
	C57.101757,188.624771 58.203362,187.248550 59.869240,186.138947 
	C68.245148,190.664627 76.056778,194.923660 83.868408,199.182693 
	C84.326378,200.674698 85.158371,202.161362 85.179733,203.659592 
	C85.292419,211.561371 85.200706,219.466064 84.664871,227.890213 
	C80.772400,228.929077 79.389549,227.675720 79.546959,224.087372 
	C79.802048,218.272461 79.704315,212.436890 79.574722,206.614090 
	C79.544525,205.257294 79.196220,203.181961 78.301140,202.684540 
	C70.953537,198.601318 63.442051,194.812988 55.980301,190.935165 
z"/>
<path fill="#D9DFED" opacity="1.000000" stroke="none" 
	d="
M69.404205,231.800247 
	C63.538010,229.317703 57.991295,226.791901 52.680923,223.840805 
	C50.083710,222.397476 48.100483,222.059128 45.414524,223.699524 
	C37.637962,228.448898 29.679018,232.899628 21.571238,237.777588 
	C20.907888,237.260468 20.464962,236.433350 20.332901,235.158234 
	C28.831949,230.034348 37.020134,225.358444 45.649250,220.430740 
	C43.935749,219.096024 42.930027,218.312607 41.924305,217.529205 
	C41.584286,215.741669 41.244267,213.954147 41.336945,212.440598 
	C43.122967,214.304901 44.476295,215.895203 45.829620,217.485519 
	C46.542385,217.187256 47.255146,216.889008 47.967911,216.590759 
	C47.967911,207.732788 47.967911,198.874817 47.967911,190.016846 
	C48.684933,189.989929 49.401958,189.963013 50.477886,189.930527 
	C50.538399,198.514694 50.052876,207.105331 50.095173,215.693390 
	C50.103924,217.469467 51.662663,219.873459 53.222366,220.884430 
	C57.507751,223.662140 62.225071,225.764038 66.655357,228.333542 
	C67.914879,229.064072 68.776787,230.480133 69.404205,231.800247 
z"/>
<path fill="#D9DFED" opacity="1.000000" stroke="none" 
	d="
M122.974640,291.782928 
	C123.000221,283.103546 123.608040,274.495636 123.819298,265.877960 
	C123.851410,264.567749 122.333145,262.721710 121.039429,261.959473 
	C113.890747,257.747559 106.589386,253.794708 99.155045,249.478455 
	C98.998352,248.670868 99.026962,248.137863 99.081360,247.205292 
	C106.685188,250.952316 114.188133,255.247986 121.898399,259.132111 
	C123.646561,260.012756 126.364555,260.133453 128.202026,259.445099 
	C133.016037,257.641754 137.590302,255.198334 142.628387,253.304718 
	C142.999725,254.083862 143.002792,254.568329 142.735641,255.261841 
	C137.933929,257.826996 133.402451,260.183105 128.004532,262.989716 
	C130.274384,264.125671 131.664444,264.821320 133.054489,265.516937 
	C132.913071,266.224396 132.771652,266.931885 132.060074,267.662415 
	C130.182266,267.075897 128.874603,266.466370 126.854828,265.524872 
	C126.297073,274.703888 125.776695,283.267914 125.256317,291.831970 
	C124.646713,291.838379 124.037109,291.844788 122.974640,291.782928 
z"/>
<path fill="#D9DFED" opacity="1.000000" stroke="none" 
	d="
M99.001488,233.218521 
	C105.998207,229.175354 112.973816,225.437363 120.071991,221.948730 
	C122.601265,220.705643 123.833916,219.305588 123.668457,216.285309 
	C123.225578,208.201172 123.121704,200.098465 122.869904,191.539902 
	C123.402161,191.088425 123.947678,191.100174 124.855591,191.589752 
	C125.623283,200.749496 126.028587,209.431412 126.447655,218.408295 
	C128.486801,217.737259 129.729202,217.328400 130.971619,216.919540 
	C131.015289,217.246643 131.058975,217.573761 130.980774,218.617859 
	C129.321915,220.294296 127.784264,221.260132 130.325073,222.834015 
	C132.307831,224.062225 134.370789,225.174469 136.273880,226.514648 
	C139.223877,228.592056 142.068100,230.819687 144.957153,232.983627 
	C142.649185,232.155609 139.841034,231.902802 138.116867,230.403442 
	C128.987106,222.464157 120.025330,222.946472 110.532677,229.739456 
	C107.326759,232.033646 103.426521,233.357559 99.487587,235.180756 
	C99.097298,234.698425 99.063011,234.160233 99.001488,233.218521 
z"/>
<path fill="#D9DFED" opacity="1.000000" stroke="none" 
	d="
M31.024437,253.031509 
	C34.441299,254.269058 38.186314,254.980118 41.202747,256.860138 
	C46.529873,260.180328 51.002682,259.988556 56.203342,256.403717 
	C61.520088,252.738876 67.491608,250.023926 73.530945,246.842560 
	C73.917122,247.293411 73.948853,247.794830 73.993378,248.672867 
	C67.129410,252.991867 60.318069,257.055817 53.340782,260.811432 
	C50.862896,262.145203 49.647861,263.534973 49.779373,266.515503 
	C50.137062,274.621979 50.165920,282.742920 50.373482,291.306885 
	C49.817173,291.801849 49.212494,291.848053 48.233437,291.454773 
	C47.607689,282.439758 47.356319,273.864197 47.086277,264.651581 
	C44.524265,265.881592 42.922958,266.650360 41.321648,267.419098 
	C41.216400,266.954102 41.111153,266.489105 41.249573,265.437805 
	C42.644981,264.036072 43.796734,263.220673 45.549671,261.979675 
	C42.847286,260.586914 40.616161,259.622162 38.583008,258.342804 
	C35.980076,256.704926 33.536613,254.813614 31.024437,253.031509 
z"/>
<path fill="#405EA7" opacity="1.000000" stroke="none" 
	d="
M31.014341,253.019073 
	C33.536613,254.813614 35.980076,256.704926 38.583008,258.342804 
	C40.616161,259.622162 42.847286,260.586914 45.549671,261.979675 
	C43.796734,263.220673 42.644981,264.036072 41.225586,265.080505 
	C33.212585,261.438690 25.467232,257.567871 17.421152,253.546768 
	C18.227575,251.781982 18.820301,250.484863 20.119589,249.162750 
	C21.879423,249.089188 22.932697,249.040604 23.985971,248.992020 
	C23.985971,248.992020 24.002256,249.002365 23.785856,249.411072 
	C25.044060,250.212143 26.518661,250.604507 27.993263,250.996872 
	C27.993265,250.996872 28.000259,251.000153 27.824299,251.366943 
	C28.093079,251.816498 28.537821,251.899277 28.982563,251.982056 
	C28.982565,251.982056 29.000168,251.998581 28.963326,252.412247 
	C29.610441,252.879791 30.294399,252.933655 30.978357,252.987518 
	C30.978357,252.987534 31.004244,253.006622 31.014341,253.019073 
z"/>
<path fill="#4260A8" opacity="1.000000" stroke="none" 
	d="
M144.968918,232.995865 
	C142.068100,230.819687 139.223877,228.592056 136.273880,226.514648 
	C134.370789,225.174469 132.307831,224.062225 130.325073,222.834015 
	C127.784264,221.260132 129.321915,220.294296 131.062988,219.106003 
	C132.670639,219.114609 134.295578,218.976273 135.441360,219.651260 
	C142.279312,223.679443 149.006714,227.895279 156.457230,232.469299 
	C155.044632,233.966827 153.924973,235.153809 152.116486,236.071075 
	C150.951447,235.874100 150.475204,235.946808 149.998978,236.019531 
	C149.998978,236.019547 149.992508,236.004913 150.015244,235.593781 
	C149.363190,235.128372 148.688416,235.074112 148.013626,235.019836 
	C148.013626,235.019836 147.994263,235.012207 148.175934,234.641083 
	C147.242065,233.854553 146.126511,233.439178 145.010971,233.023788 
	C145.010971,233.023788 144.980682,233.008102 144.968918,232.995865 
z"/>
<path fill="#405EA7" opacity="1.000000" stroke="none" 
	d="
M94.993393,196.547333 
	C94.993393,196.547333 94.669617,196.847153 94.692123,196.464111 
	C93.432518,196.179062 92.150421,196.277084 90.868317,196.375092 
	C85.265938,197.910934 88.625755,193.501862 87.922600,191.400238 
	C95.332352,187.135834 102.674652,183.303818 110.356201,179.294739 
	C111.204300,180.840225 111.887497,182.085190 112.380623,183.800064 
	C107.325409,187.084702 102.460258,189.899445 97.201134,192.860229 
	C96.202568,194.186630 95.597984,195.366974 94.993393,196.547333 
z"/>
<path fill="#4260A8" opacity="1.000000" stroke="none" 
	d="
M41.574753,217.413666 
	C42.930027,218.312607 43.935749,219.096024 45.649250,220.430740 
	C37.020134,225.358444 28.831949,230.034348 20.324709,234.844604 
	C19.281509,233.581146 18.557365,232.183319 17.525915,230.192291 
	C25.690777,225.750000 33.457989,221.524078 41.574753,217.413666 
z"/>
<path fill="#3F5DA7" opacity="1.000000" stroke="none" 
	d="
M131.254547,216.609512 
	C129.729202,217.328400 128.486801,217.737259 126.447655,218.408295 
	C126.028587,209.431412 125.623283,200.749496 125.262543,191.637039 
	C129.678116,190.356583 131.168503,192.235458 131.094711,196.558746 
	C130.982452,203.134567 131.365051,209.718811 131.254547,216.609512 
z"/>
<path fill="#405EA7" opacity="1.000000" stroke="none" 
	d="
M84.141815,190.137085 
	C84.707123,192.197372 84.962051,194.169296 84.777145,196.446609 
	C77.676819,193.151291 70.962021,189.645248 64.396393,185.879150 
	C62.873013,185.005341 61.858322,183.244720 60.609562,181.892151 
	C61.666634,179.378479 63.179050,179.075745 65.582123,180.406570 
	C71.599594,183.739105 77.740211,186.849304 84.141815,190.137085 
z"/>
<path fill="#3F5DA7" opacity="1.000000" stroke="none" 
	d="
M136.631775,270.849335 
	C138.673203,267.155670 141.727493,265.564941 145.045074,267.341309 
	C146.982452,268.378662 149.192780,271.402893 148.990021,273.286743 
	C148.754913,275.471313 146.404449,278.324066 144.271042,279.223419 
	C139.720367,281.141724 136.167252,277.181793 136.631775,270.849335 
z"/>
<path fill="#3D5CA6" opacity="1.000000" stroke="none" 
	d="
M141.480637,205.517151 
	C145.730179,205.100479 148.953125,206.782440 149.047501,210.548416 
	C149.107132,212.927933 147.102066,216.449844 145.043289,217.457458 
	C143.298004,218.311646 139.484940,217.002579 137.761261,215.393097 
	C134.563492,212.407150 136.228516,208.300201 141.480637,205.517151 
z"/>
<path fill="#3F5DA7" opacity="1.000000" stroke="none" 
	d="
M82.969833,285.235901 
	C87.423378,285.884003 84.704453,288.883606 84.608078,291.308289 
	C78.055229,294.913422 71.789253,298.269165 65.366470,301.291718 
	C64.276527,301.804657 62.513054,300.886292 60.909107,299.981720 
	C62.017494,298.161163 63.120449,296.725250 64.565430,295.861633 
	C70.091827,292.558655 75.728233,289.439789 81.620110,286.124146 
	C82.012993,285.888214 82.196579,285.773071 82.188301,285.673981 
	C82.168411,285.435760 82.058548,285.205078 81.984978,284.971344 
	C81.984978,284.971344 82.000000,285.000000 82.188126,285.239563 
	C82.574112,285.398041 82.771973,285.316986 82.969833,285.235901 
z"/>
<path fill="#405EA7" opacity="1.000000" stroke="none" 
	d="
M133.450729,265.595764 
	C131.664444,264.821320 130.274384,264.125671 128.004532,262.989716 
	C133.402451,260.183105 137.933929,257.826996 143.086609,255.209793 
	C146.199570,253.616074 148.691345,252.283463 151.183105,250.950836 
	C152.864487,251.588242 154.545883,252.225662 156.227264,252.863083 
	C156.119843,253.489899 156.012405,254.116730 155.904968,254.743546 
	C148.552307,258.387238 141.199631,262.030914 133.450729,265.595764 
z"/>
<path fill="#4260A8" opacity="1.000000" stroke="none" 
	d="
M41.301414,267.739716 
	C42.922958,266.650360 44.524265,265.881592 47.086277,264.651581 
	C47.356319,273.864197 47.607689,282.439758 47.780991,291.407898 
	C46.418194,291.854919 45.133457,291.909332 43.382477,291.619751 
	C42.624226,290.180634 42.332222,289.085541 42.040222,287.990479 
	C41.937019,284.650543 41.833817,281.310638 41.756042,277.130249 
	C41.550030,274.186371 41.318592,272.082916 41.087158,269.979492 
	C41.151833,269.339783 41.216503,268.700043 41.301414,267.739716 
z"/>
<path fill="#3D5CA6" opacity="1.000000" stroke="none" 
	d="
M84.655304,172.562714 
	C88.578735,172.030853 91.638756,173.239120 92.108406,176.864883 
	C92.392662,179.059387 91.425629,182.404419 89.814873,183.579468 
	C88.186317,184.767471 84.625145,184.780945 82.694206,183.786819 
	C78.012833,181.376617 78.990112,175.718246 84.655304,172.562714 
z"/>
<path fill="#3F5DA7" opacity="1.000000" stroke="none" 
	d="
M28.554588,278.739502 
	C24.647354,276.758698 22.908768,273.941589 24.552427,270.068390 
	C25.951084,266.772522 28.786224,265.405548 32.300533,266.430084 
	C35.595303,267.390625 37.221619,269.916107 36.751202,273.257355 
	C36.133690,277.643311 33.255714,279.380066 28.554588,278.739502 
z"/>
<path fill="#3A5AA5" opacity="1.000000" stroke="none" 
	d="
M36.517418,206.528381 
	C36.151428,209.535263 36.378956,212.945023 34.784500,214.689301 
	C33.607033,215.977432 29.564217,215.961700 27.708576,214.914062 
	C26.116333,214.015137 25.061584,210.786102 25.184412,208.669617 
	C25.280222,207.018753 27.447649,204.302017 28.875509,204.180161 
	C31.284630,203.974564 33.837120,205.448898 36.517418,206.528381 
z"/>
<path fill="#405EA7" opacity="1.000000" stroke="none" 
	d="
M47.545517,189.999954 
	C47.967911,198.874817 47.967911,207.732788 47.967911,216.590759 
	C47.255146,216.889008 46.542385,217.187256 45.829620,217.485519 
	C44.476295,215.895203 43.122967,214.304901 41.642216,212.339127 
	C41.713322,208.615936 41.911850,205.268219 42.281326,201.144211 
	C42.469299,198.548553 42.486324,196.729156 42.503349,194.909775 
	C42.698513,192.006546 42.854019,189.066147 47.545517,189.999954 
z"/>
<path fill="#3F5DA7" opacity="1.000000" stroke="none" 
	d="
M125.662613,291.887634 
	C125.776695,283.267914 126.297073,274.703888 126.854828,265.524872 
	C128.874603,266.466370 130.182266,267.075897 131.844971,267.834351 
	C131.786545,274.753479 131.272659,281.519623 131.000946,288.295502 
	C130.859894,291.812897 128.943298,292.394135 125.662613,291.887634 
z"/>
<path fill="#3F5DA7" opacity="1.000000" stroke="none" 
	d="
M87.012253,295.855743 
	C90.613564,297.076630 93.650932,299.337952 92.551598,303.314758 
	C91.953995,305.476562 89.119095,308.202911 87.040886,308.437408 
	C84.990601,308.668762 81.476204,306.529541 80.716919,304.599243 
	C79.965248,302.688324 81.704597,299.679443 82.678162,297.285034 
	C82.945816,296.626740 84.383911,296.444366 85.890900,296.009399 
	C86.668663,295.935364 86.840454,295.895569 87.012253,295.855743 
z"/>
<path fill="#CFD6E9" opacity="1.000000" stroke="none" 
	d="
M60.329620,181.973679 
	C61.858322,183.244720 62.873013,185.005341 64.396393,185.879150 
	C70.962021,189.645248 77.676819,193.151291 84.665756,196.868515 
	C84.700073,197.527084 84.405937,198.069138 83.990105,198.896942 
	C76.056778,194.923660 68.245148,190.664627 60.219208,186.135223 
	C60.019821,184.594986 60.034752,183.325089 60.329620,181.973679 
z"/>
<path fill="#CFD6E9" opacity="1.000000" stroke="none" 
	d="
M81.323578,286.252197 
	C75.728233,289.439789 70.091827,292.558655 64.565430,295.861633 
	C63.120449,296.725250 62.017494,298.161163 60.717155,299.713989 
	C60.108997,299.034485 59.541145,297.975281 58.953857,296.577240 
	C65.691826,292.475189 72.449242,288.711914 79.723358,285.198822 
	C80.601242,285.716736 80.962410,285.984467 81.323578,286.252197 
z"/>
<path fill="#D9DFED" opacity="1.000000" stroke="none" 
	d="
M97.595108,192.714172 
	C102.460258,189.899445 107.325409,187.084702 112.486053,184.109589 
	C113.163895,184.422623 113.546257,184.896011 113.964569,185.687149 
	C109.263885,188.684418 104.527245,191.363937 99.260666,193.786774 
	C98.352196,193.258102 97.973656,192.986145 97.595108,192.714172 
z"/>
<path fill="#D9DFED" opacity="1.000000" stroke="none" 
	d="
M112.914841,298.997742 
	C109.127678,296.398376 105.588394,293.691437 102.049103,290.984467 
	C102.271049,290.553436 102.492996,290.122406 102.714943,289.691376 
	C106.308441,291.600525 109.901939,293.509644 113.814209,295.646118 
	C113.809540,296.879028 113.486122,297.884583 112.914841,298.997742 
z"/>
<path fill="#CFD6E9" opacity="1.000000" stroke="none" 
	d="
M151.136658,250.475830 
	C148.691345,252.283463 146.199570,253.616074 143.356842,255.000732 
	C143.002792,254.568329 142.999725,254.083862 142.984665,253.236145 
	C145.419403,251.612717 147.866150,250.352570 150.667023,249.070602 
	C151.044189,249.366119 151.067200,249.683472 151.136658,250.475830 
z"/>
<path fill="#D9DFED" opacity="1.000000" stroke="none" 
	d="
M40.803024,270.227783 
	C41.318592,272.082916 41.550030,274.186371 41.654419,276.688843 
	C41.191216,274.883972 40.855057,272.680054 40.803024,270.227783 
z"/>
<path fill="#D9DFED" opacity="1.000000" stroke="none" 
	d="
M42.188755,195.048828 
	C42.486324,196.729156 42.469299,198.548553 42.244652,200.688049 
	C41.982738,199.068085 41.928448,197.127975 42.188755,195.048828 
z"/>
<path fill="#D9DFED" opacity="1.000000" stroke="none" 
	d="
M41.770348,288.210815 
	C42.332222,289.085541 42.624226,290.180634 42.995239,291.618164 
	C42.549660,290.784149 42.025066,289.607635 41.770348,288.210815 
z"/>
<path fill="#CFD6E9" opacity="1.000000" stroke="none" 
	d="
M21.344460,244.987534 
	C21.864229,245.599075 22.076893,246.298309 22.083698,247.400391 
	C21.311544,247.852676 20.745251,247.902115 20.178959,247.951569 
	C20.465092,246.992783 20.751223,246.034012 21.344460,244.987534 
z"/>
<path fill="#D9DFED" opacity="1.000000" stroke="none" 
	d="
M149.767303,236.316650 
	C150.475204,235.946808 150.951447,235.874100 151.744110,236.044388 
	C152.022614,236.723785 151.984665,237.160187 151.900192,237.922333 
	C151.080978,237.703323 150.308319,237.158539 149.767303,236.316650 
z"/>
<path fill="#D9DFED" opacity="1.000000" stroke="none" 
	d="
M20.106293,248.175323 
	C20.745251,247.902115 21.311544,247.852676 22.299644,247.702927 
	C23.217817,247.881165 23.714184,248.159698 24.098261,248.715134 
	C22.932697,249.040604 21.879423,249.089188 20.396130,249.001251 
	C19.966110,248.864746 20.033630,248.399094 20.106293,248.175323 
z"/>
<path fill="#F1F3F8" opacity="1.000000" stroke="none" 
	d="
M86.993202,295.618988 
	C86.840454,295.895569 86.668663,295.935364 86.241684,295.905579 
	C86.160133,295.436462 86.333763,295.036926 86.507385,294.637421 
	C86.662979,294.885681 86.818565,295.133972 86.993202,295.618988 
z"/>
<path fill="#F1F3F8" opacity="1.000000" stroke="none" 
	d="
M363.975037,237.774109 
	C364.119781,240.171585 364.251007,242.135101 364.416260,244.608505 
	C361.342285,244.608505 358.502991,244.608505 354.629059,244.608505 
	C357.158081,239.312347 359.557373,234.287888 361.956696,229.263412 
	C362.350586,229.303711 362.744507,229.344009 363.138428,229.384308 
	C363.412750,232.036255 363.687103,234.688202 363.975037,237.774109 
z"/>
<path fill="#F4F6FA" opacity="1.000000" stroke="none" 
	d="
M56.014694,191.407654 
	C63.442051,194.812988 70.953537,198.601318 78.301140,202.684540 
	C79.196220,203.181961 79.544525,205.257294 79.574722,206.614090 
	C79.704315,212.436890 79.802048,218.272461 79.546959,224.087372 
	C79.389549,227.675720 80.772400,228.929077 84.621948,228.379288 
	C83.087692,228.902756 81.081299,229.457626 78.678619,230.015930 
	C77.340294,228.742676 76.668495,226.999771 75.409462,226.269928 
	C69.954102,223.107559 64.196892,220.451416 58.844364,217.135193 
	C57.294037,216.174667 55.922611,213.660522 55.851246,211.805435 
	C55.596218,205.176010 55.934978,198.523758 56.014694,191.407654 
z"/>
<path fill="#F1F3F8" opacity="1.000000" stroke="none" 
	d="
M94.641312,254.003448 
	C101.819618,257.861603 108.963966,261.631592 116.007080,265.582031 
	C116.957954,266.115387 118.014954,267.578033 117.979385,268.573090 
	C117.715332,275.960510 117.187447,283.338470 116.364609,290.893066 
	C109.852249,287.483429 103.786980,283.772949 97.550247,280.377350 
	C94.924789,278.947906 93.677605,277.364746 93.822304,274.220032 
	C94.119064,267.770874 93.989967,261.302155 94.232964,254.406128 
	C94.429741,253.970795 94.575539,253.972015 94.641312,254.003448 
z"/>
<path fill="#F1F3F8" opacity="1.000000" stroke="none" 
	d="
M90.081604,283.094055 
	C91.929245,283.709778 93.742172,284.695923 95.410080,286.232971 
	C95.045708,286.998413 94.826363,287.212921 94.607025,287.427429 
	C93.203819,286.779694 91.800613,286.131958 90.203148,285.217712 
	C90.021553,284.455566 90.034225,283.960022 90.081604,283.094055 
z"/>
<path fill="#D9DFED" opacity="1.000000" stroke="none" 
	d="
M74.275764,235.533447 
	C72.900429,235.027420 71.665016,234.270065 70.567642,233.194565 
	C71.217545,232.473267 71.729424,232.070145 72.241302,231.666992 
	C73.007088,231.996414 73.772881,232.325836 74.776535,232.864471 
	C74.814827,233.809845 74.615257,234.545990 74.275764,235.533447 
z"/>
<path fill="#F4F6FA" opacity="1.000000" stroke="none" 
	d="
M90.952255,196.934631 
	C92.150421,196.277084 93.432518,196.179062 94.624313,196.551331 
	C93.671593,197.482697 92.809174,197.943787 91.593445,198.506042 
	C91.172150,198.236221 91.104172,197.865189 90.952255,196.934631 
z"/>
<path fill="#D9DFED" opacity="1.000000" stroke="none" 
	d="
M73.380051,239.015335 
	C73.288078,238.442535 73.471016,237.839096 73.976105,237.160065 
	C74.083824,237.717896 73.869392,238.351288 73.380051,239.015335 
z"/>
<path fill="#F1F3F8" opacity="1.000000" stroke="none" 
	d="
M82.985077,284.907471 
	C82.771973,285.316986 82.574112,285.398041 82.177567,285.227295 
	C82.089867,284.440826 82.200859,283.906219 82.667419,283.319031 
	C83.015434,283.703979 83.007874,284.141479 82.985077,284.907471 
z"/>
<path fill="#4260A8" opacity="1.000000" stroke="none" 
	d="
M79.744827,254.065918 
	C79.990501,254.264832 79.967041,254.486725 79.711250,254.922089 
	C79.478928,255.135544 79.140282,254.946106 79.200928,254.690536 
	C79.184090,254.277924 79.106606,254.120880 79.029129,253.963852 
	C79.029129,253.963852 78.985428,254.011108 78.961052,254.032028 
	C79.116348,254.064941 79.296021,254.076935 79.744827,254.065918 
z"/>
<path fill="#F7F8FB" opacity="1.000000" stroke="none" 
	d="
M110.655075,236.648209 
	C120.652252,228.836655 129.965790,229.236374 139.330597,237.257767 
	C142.168564,239.688629 145.831894,241.155869 149.968277,243.558929 
	C141.925903,247.312927 134.668579,250.784164 127.314224,254.035950 
	C126.304611,254.482361 124.607910,254.208588 123.577156,253.638901 
	C116.611206,249.788910 109.738922,245.769409 101.886307,241.259109 
	C105.221985,239.511429 107.776344,238.173111 110.655075,236.648209 
z"/>
<path fill="#D9DFED" opacity="1.000000" stroke="none" 
	d="
M144.843491,233.394470 
	C146.126511,233.439178 147.242065,233.854553 148.168076,234.634232 
	C146.877701,234.587402 145.776855,234.176285 144.843491,233.394470 
z"/>
<path fill="#D9DFED" opacity="1.000000" stroke="none" 
	d="
M147.989532,235.425568 
	C148.688416,235.074112 149.363190,235.128372 150.007339,235.592010 
	C149.306274,235.944687 148.635864,235.887985 147.989532,235.425568 
z"/>
<path fill="#D9DFED" opacity="1.000000" stroke="none" 
	d="
M97.139038,286.566589 
	C99.087799,287.692871 101.036568,288.819153 102.985336,289.945404 
	C102.717178,290.445526 102.449028,290.945679 102.180878,291.445801 
	C100.547798,290.703491 98.914719,289.961182 97.145630,288.421600 
	C97.052757,287.271759 97.095901,286.919159 97.139038,286.566589 
z"/>
<path fill="#F1F3F8" opacity="1.000000" stroke="none" 
	d="
M96.970795,286.442902 
	C97.095901,286.919159 97.052757,287.271759 96.932777,288.153595 
	C96.261742,288.418701 95.667557,288.154572 94.840195,287.658936 
	C94.826363,287.212921 95.045708,286.998413 95.634628,286.497498 
	C96.281990,286.160431 96.548111,286.196472 96.970795,286.442902 
z"/>
<path fill="#FBFCFD" opacity="1.000000" stroke="none" 
	d="
M79.140282,254.946106 
	C79.140282,254.946106 79.478928,255.135544 79.636757,255.248398 
	C79.715675,261.803406 79.898254,268.265717 79.403748,274.675781 
	C79.248772,276.684631 77.730400,279.258728 76.043648,280.356720 
	C70.374336,284.047119 64.347778,287.188751 58.235706,290.796082 
	C57.347115,290.017578 56.181396,289.019684 56.102989,287.942657 
	C55.803303,283.825989 56.382267,279.588470 55.657543,275.572083 
	C54.348724,268.318695 57.222496,264.227692 63.784950,261.571503 
	C68.042435,259.848267 71.928413,257.207184 76.729431,254.964203 
	C78.032104,254.949402 78.586197,254.947754 79.140282,254.946106 
z"/>
<path fill="#F1F3F8" opacity="1.000000" stroke="none" 
	d="
M79.200928,254.690536 
	C78.586197,254.947754 78.032104,254.949402 77.062996,254.904800 
	C77.218704,254.507843 77.789436,254.157135 78.694649,253.885147 
	C79.106606,254.120880 79.184090,254.277924 79.200928,254.690536 
z"/>
<path fill="#FCFDFE" opacity="1.000000" stroke="none" 
	d="
M71.954880,231.452682 
	C71.729424,232.070145 71.217545,232.473267 70.369171,232.930756 
	C69.710526,232.837402 69.388374,232.689697 69.019928,232.276886 
	C69.871910,231.753952 70.770187,231.496155 71.954880,231.452682 
z"/>
<path fill="#F8F9FC" opacity="1.000000" stroke="none" 
	d="
M25.073858,241.400391 
	C31.209070,237.703140 37.467392,234.622147 43.339973,230.927948 
	C46.943516,228.661133 49.731178,228.730850 53.270878,230.959259 
	C58.449734,234.219635 63.980942,236.920303 69.711983,239.919830 
	C69.534279,240.924774 69.245491,242.275436 68.440613,242.749023 
	C62.605194,246.182770 56.691044,249.486496 50.735535,252.708878 
	C49.665504,253.287827 47.974812,253.919342 47.103325,253.477066 
	C39.677174,249.708160 32.374115,245.696701 25.073858,241.400391 
z"/>
<path fill="#D9DFED" opacity="1.000000" stroke="none" 
	d="
M27.964382,250.631088 
	C26.518661,250.604507 25.044060,250.212143 23.792973,249.417572 
	C25.322824,249.432022 26.629164,249.848663 27.964382,250.631088 
z"/>
<path fill="#D9DFED" opacity="1.000000" stroke="none" 
	d="
M31.046238,252.567108 
	C30.294399,252.933655 29.610441,252.879791 28.973721,252.418365 
	C29.718678,252.056122 30.416399,252.101410 31.046238,252.567108 
z"/>
<path fill="#D9DFED" opacity="1.000000" stroke="none" 
	d="
M29.142155,251.647064 
	C28.537821,251.899277 28.093079,251.816498 27.827003,251.370056 
	C28.437696,251.108292 28.869720,251.210159 29.142155,251.647064 
z"/>
<path fill="#F8F9FC" opacity="1.000000" stroke="none" 
	d="
M116.648170,191.397552 
	C117.310631,198.571609 117.808228,205.681824 117.689590,212.781738 
	C117.659988,214.553329 116.054840,217.027084 114.467285,217.915451 
	C108.268990,221.383865 101.787216,224.345688 95.211899,227.779053 
	C94.655136,222.735260 94.637970,217.357452 93.853157,212.094101 
	C92.873680,205.525192 95.313553,201.757202 101.424675,199.274368 
	C106.591316,197.175232 111.328293,194.018539 116.648170,191.397552 
z"/>
<path fill="#F4F6FA" opacity="1.000000" stroke="none" 
	d="
M97.201134,192.860229 
	C97.973656,192.986145 98.352196,193.258102 98.905670,193.833832 
	C97.929070,194.853210 96.777550,195.568802 95.309708,196.415863 
	C95.597984,195.366974 96.202568,194.186630 97.201134,192.860229 
z"/>
<path fill="#F1F3F8" opacity="1.000000" stroke="none" 
	d="
M81.620117,286.124146 
	C80.962410,285.984467 80.601242,285.716736 80.078232,285.151428 
	C80.438797,284.661774 80.961205,284.469727 81.734299,284.624512 
	C82.058548,285.205078 82.168411,285.435760 82.188301,285.673981 
	C82.196579,285.773071 82.012993,285.888214 81.620117,286.124146 
z"/>
</svg>