<?xml version="1.0" encoding="UTF-8"?>
<svg version="1.1" xmlns="http://www.w3.org/2000/svg" width="520" height="160">
<path d="M0 0 C4.45935651 2.30930962 7.90011945 4.65613927 10.9375 8.75 C11.92606756 12.3747477 11.27264773 15.449004 9.4375 18.6875 C6.25709362 20.53418758 3.02020531 20.45192544 -0.5 19.8125 C-2.5 18.47916667 -4.5 17.14583333 -6.5 15.8125 C-10.53995234 15.20729313 -14.61436634 15.51728878 -18.5 16.8125 C-18.63440778 19.24169865 -18.63440778 19.24169865 -17.5 21.8125 C-14.77977039 23.09562717 -12.3650029 23.97483197 -9.5 24.8125 C-0.65729841 27.41677624 6.7556535 29.89804522 12.5 37.4375 C14.40832344 43.8780916 14.70955696 50.9254128 12 57.1875 C8.61829207 62.96408293 2.79182287 66.80641155 -3.5 68.8125 C-12.14368446 69.6620507 -21.00821511 69.71670638 -28.5 64.8125 C-32.7007338 60.91236917 -36.27159117 57.27931538 -36.8125 51.4375 C-36.5 47.8125 -36.5 47.8125 -34.9375 45.375 C-31.51685857 43.18228113 -29.49048721 43.18242307 -25.5 43.8125 C-22.875 46.125 -22.875 46.125 -20.5 48.8125 C-16.10367897 52.25826513 -12.90586106 52.24153659 -7.5 51.8125 C-5.09442147 50.94984032 -5.09442147 50.94984032 -3.5 49.8125 C-3.5 48.1625 -3.5 46.5125 -3.5 44.8125 C-4.76714844 44.44898438 -6.03429687 44.08546875 -7.33984375 43.7109375 C-29.26436679 37.24169139 -29.26436679 37.24169139 -34.0625 29 C-36.28579664 23.57556791 -36.44478346 18.81491284 -34.6875 13.23046875 C-31.82441954 6.59965394 -27.89372439 3.05725526 -21.5 -0.1875 C-15.00839179 -2.3513694 -6.49502098 -2.23226935 0 0 Z " fill="#02214C" transform="translate(36.5,57.1875)"/>
<path d="M0 0 C2.71203397 1.79650658 4.71191274 3.75832977 6.83984375 6.21875 C7.33484375 6.71375 7.33484375 6.71375 7.83984375 7.21875 C8.29698661 14.30446429 8.29698661 14.30446429 6.83984375 17.21875 C3.55992724 18.85870825 0.37144899 18.84005092 -3.16015625 18.21875 C-4.99048807 17.29960511 -6.64471347 16.22873822 -8.36328125 15.1171875 C-11.67454158 13.46155734 -14.5222827 13.85496264 -18.16015625 14.21875 C-19.15015625 14.87875 -20.14015625 15.53875 -21.16015625 16.21875 C-21.16015625 17.53875 -21.16015625 18.85875 -21.16015625 20.21875 C-16.35066379 22.10482548 -11.56887283 23.68160303 -6.59765625 25.09375 C0.39589802 27.24685814 5.50029613 29.43317183 9.27734375 35.90625 C11.62804125 41.30980139 11.84477323 46.73290085 10.21484375 52.38671875 C7.46739635 58.72792546 2.40749896 63.73305514 -3.96484375 66.38671875 C-11.76422173 68.41760813 -20.43132685 68.54253791 -27.78515625 65.03125 C-33.60901834 61.59294999 -37.78915098 57.67315323 -40.16015625 51.21875 C-40.0372982 48.08586977 -39.63908835 46.06392429 -38.09765625 43.34375 C-35.55272899 41.8660503 -33.21058237 41.57163878 -30.2890625 41.65234375 C-26.81254528 42.5772887 -24.9792043 44.9136935 -22.703125 47.58984375 C-20.14172027 50.293909 -17.88207655 50.23640585 -14.22265625 50.46875 C-10.65066324 50.44243698 -8.75779722 49.81639097 -6.16015625 47.21875 C-6.31593382 45.25193005 -6.31593382 45.25193005 -7.16015625 43.21875 C-9.12813234 42.11508714 -9.12813234 42.11508714 -11.60546875 41.5078125 C-12.518125 41.23195312 -13.43078125 40.95609375 -14.37109375 40.671875 C-16.29006197 40.12653819 -18.20932584 39.58224047 -20.12890625 39.0390625 C-27.53758057 36.79778287 -32.5369355 33.85741104 -37.09765625 27.53125 C-39.09549366 21.30269807 -39.26712584 14.87923092 -36.53515625 8.84375 C-33.53655252 3.69877729 -28.98016121 -0.11668141 -23.40234375 -2.2734375 C-15.52763296 -4.05690859 -7.20527953 -3.75694277 0 0 Z " fill="#02214C" transform="translate(98.16015625,58.78125)"/>
<path d="M0 0 C1.99954746 -0.04254356 4.00041636 -0.04080783 6 0 C7.80734305 1.80734305 7.15597023 4.57765332 7.17700195 7.01342773 C7.19625481 8.94695351 7.19625481 8.94695351 7.21589661 10.91954041 C7.22406905 12.34088761 7.23151181 13.76223917 7.23828125 15.18359375 C7.24235678 15.89834429 7.2464323 16.61309483 7.25063133 17.34950447 C7.27152919 21.14112181 7.2858081 24.93270269 7.29516602 28.72436523 C7.30616786 32.62133978 7.34048325 36.51773334 7.38033772 40.41450405 C7.40664889 43.42506378 7.41487115 46.43548908 7.41844749 49.44615364 C7.42328543 50.88091974 7.43481875 52.31568097 7.45348549 53.75033379 C7.60940096 66.54069284 5.56820685 75.3446832 -3.359375 84.73046875 C-10.91933927 91.228012 -19.65831456 94.36256257 -29.5390625 94.21484375 C-39.43973752 93.35049911 -47.43006925 88.92142292 -54.25 81.875 C-60.9054138 73.92256658 -62.74052999 65.67652953 -62.37109375 55.421875 C-61.08458709 43.55892936 -55.03924027 36.12022545 -46.125 28.5625 C-34.82925459 22.9146273 -25.1857298 23.10513208 -13.30859375 26.44140625 C-8.83183418 28.55029299 -5.5676594 31.61526817 -2 35 C-1.96241577 33.5162085 -1.96241577 33.5162085 -1.92407227 32.00244141 C-1.83002213 28.33840596 -1.72979571 24.67456115 -1.62768555 21.01074219 C-1.58432759 19.42387343 -1.54265313 17.83695776 -1.50268555 16.25 C-1.44500368 13.97121021 -1.38130362 11.69265678 -1.31640625 9.4140625 C-1.29133751 8.34679428 -1.29133751 8.34679428 -1.26576233 7.25796509 C-1.11387171 2.22774341 -1.11387171 2.22774341 0 0 Z M-47.50390625 41.4453125 C-52.79466351 47.22566223 -54.62698093 53.78203975 -54.34375 61.48828125 C-53.26680476 69.35732428 -48.81725032 75.76328994 -43 81 C-36.67252748 85.38738576 -30.03974091 86.71999666 -22.5 85.375 C-14.61327419 83.32526575 -8.5214451 78.7469539 -4 72 C-0.65186467 66.04916324 -0.03660976 59.70631849 -1 53 C-3.39836349 45.1560769 -8.34207215 39.65142905 -15 35 C-27.27511451 29.28177896 -38.07886149 32.38747728 -47.50390625 41.4453125 Z " fill="#02214C" transform="translate(433,32)"/>
<path d="M0 0 C6.63230235 5.70594809 12.30714109 12.27558027 14.19140625 21.01171875 C14.33916656 24.6853458 14.30908062 28.33766347 14.19140625 32.01171875 C11.55425529 33.33029423 9.59307985 33.13163579 6.64013672 33.12524414 C5.47908417 33.12516861 4.31803162 33.12509308 3.12179565 33.12501526 C1.86343903 33.11985397 0.6050824 33.11469269 -0.69140625 33.109375 C-1.97594696 33.10796005 -3.26048767 33.1065451 -4.58395386 33.10508728 C-8.00016217 33.10126786 -11.41632801 33.09144248 -14.83251953 33.0803833 C-18.31802801 33.07015682 -21.80354335 33.06558701 -25.2890625 33.06054688 C-32.1289237 33.04981971 -38.96875669 33.03275017 -45.80859375 33.01171875 C-45.05746591 34.9416555 -44.29318761 36.86647735 -43.5234375 38.7890625 C-43.09925537 39.86148193 -42.67507324 40.93390137 -42.23803711 42.03881836 C-39.32332738 48.10071766 -33.98701538 51.61600424 -27.80859375 54.01171875 C-20.36059325 55.59899754 -13.79231734 54.832233 -7.05859375 51.13671875 C-3.80458599 49.11045862 -3.80458599 49.11045862 -1.12109375 46.69921875 C1.19140625 45.01171875 1.19140625 45.01171875 3.44140625 45.19921875 C5.19140625 46.01171875 5.19140625 46.01171875 6.19140625 47.01171875 C6.58538549 50.11627514 6.53315519 51.53750898 4.6796875 54.109375 C-2.55476601 60.64246318 -10.6887091 64.01526368 -20.49609375 64.44921875 C-31.05580991 63.86901457 -39.79228479 59.39434424 -47.05859375 51.88671875 C-53.71400755 43.93428533 -55.54912374 35.68824828 -55.1796875 25.43359375 C-54.06683559 15.17192771 -49.68515917 7.67650487 -41.80859375 1.01171875 C-28.64235382 -7.208827 -13.33282027 -9.43867249 0 0 Z M-38.80859375 10.01171875 C-44.05164257 15.52831795 -44.79577219 17.90914625 -45.80859375 26.01171875 C-28.64859375 26.01171875 -11.48859375 26.01171875 6.19140625 26.01171875 C4.11054711 16.64785263 2.2287873 11.46355796 -5.68359375 6.13671875 C-17.08170833 -0.34841541 -29.39415496 1.07195754 -38.80859375 10.01171875 Z " fill="#02214C" transform="translate(505.80859375,61.98828125)"/>
<path d="M0 0 C7.54200604 6.5079307 13.39891129 13.91342509 14.30993652 24.1293335 C14.38362681 26.47385491 14.39843278 28.81060247 14.38671875 31.15625 C14.3886322 32.00724777 14.39054565 32.85824554 14.39251709 33.73503113 C14.39387058 35.52086689 14.39023294 37.30671277 14.38183594 39.0925293 C14.37105768 41.83339218 14.38179339 44.57360953 14.39453125 47.31445312 C14.39321081 49.05338687 14.3906508 50.7923202 14.38671875 52.53125 C14.39076721 53.35204544 14.39481567 54.17284088 14.39898682 55.01850891 C14.35105771 60.78175479 14.35105771 60.78175479 12.12109375 63.01171875 C7.56553819 62.45616319 7.56553819 62.45616319 6.12109375 61.01171875 C5.66649517 58.35708754 5.41866137 55.68982737 5.12109375 53.01171875 C4.55261719 53.48222656 3.98414063 53.95273438 3.3984375 54.4375 C-5.38208549 61.51762121 -13.45211486 65.00929578 -24.87890625 64.01171875 C-36.13348905 61.79913049 -44.15642419 56.26256796 -50.87890625 47.01171875 C-55.83581693 39.01939648 -55.87864215 30.08967775 -54.87890625 21.01171875 C-52.54859183 11.32074773 -47.101145 4.11699282 -38.80078125 -1.359375 C-26.53620404 -7.95037811 -11.69180955 -8.0748047 0 0 Z M-40.3828125 11.45703125 C-45.65113417 17.21286925 -47.50566175 23.75316332 -47.22265625 31.4296875 C-46.12459718 39.67760849 -42.46049002 45.97164645 -35.87890625 51.01171875 C-29.35957536 55.29697032 -22.99371491 56.76859377 -15.31640625 55.32421875 C-7.04972424 53.15474646 -1.77377241 48.91765395 3.12109375 42.01171875 C6.78370953 35.56655035 7.25612141 28.53156102 5.46484375 21.3984375 C2.77392425 13.75483425 -1.68393073 8.58013139 -8.75390625 4.63671875 C-20.77222957 -0.73563387 -31.27260765 2.70176944 -40.3828125 11.45703125 Z " fill="#02214C" transform="translate(270.87890625,61.98828125)"/>
<path d="M0 0 C2.0808746 2.0808746 1.13710306 6.62148355 1.140625 9.49609375 C1.15897395 11.27019491 1.17854614 13.04428377 1.19921875 14.81835938 C1.22802781 17.61601171 1.24999567 20.41288376 1.25048828 23.21069336 C1.0063304 39.31649325 1.0063304 39.31649325 8.81347656 52.91186523 C14.61472817 58.37468251 20.16175787 59.47771578 27.99609375 59.3046875 C33.37210928 58.75939594 36.98531566 57.07314616 40.75 53.19921875 C46.34887827 46.26791512 47.28743752 39.50625792 47.34375 30.85546875 C47.3583728 30.00447098 47.37299561 29.15347321 47.38806152 28.27668762 C47.45001105 24.66092385 47.49013407 21.04500134 47.53173828 17.42895508 C47.56536547 14.77927437 47.61046605 12.12996268 47.65625 9.48046875 C47.6615271 8.65967331 47.6668042 7.83887787 47.67224121 6.99320984 C47.77430001 1.22569999 47.77430001 1.22569999 50 -1 C54.55555556 -0.44444444 54.55555556 -0.44444444 56 1 C56.13872684 3.97392079 56.21327551 6.9228055 56.23828125 9.8984375 C56.246353 10.80316803 56.25442474 11.70789856 56.26274109 12.64004517 C56.27660955 14.56518628 56.28731927 16.49035227 56.29516602 18.41552734 C56.31222644 21.32829519 56.35606733 24.23988227 56.40039062 27.15234375 C56.51265387 40.37817965 55.86886303 51.05897089 46.28515625 61.0546875 C39.62743946 66.72228231 31.9545779 69.37485109 23.234375 69.2109375 C14.18860886 68.35696657 5.91789272 64.53099807 -0.046875 57.6328125 C-6.03007322 49.4986298 -7.30809299 42.79176307 -7.1953125 32.91015625 C-7.1924826 31.96563095 -7.18965271 31.02110565 -7.18673706 30.04795837 C-7.17560684 27.05267276 -7.1505156 24.05769414 -7.125 21.0625 C-7.11496095 19.0227908 -7.10583672 16.98307688 -7.09765625 14.94335938 C-7.07569096 9.9621226 -7.04121076 4.98111322 -7 0 C-4.31633121 -1.3418344 -2.84719317 -0.73004953 0 0 Z " fill="#02214C" transform="translate(304,57)"/>
<path d="M0 0 C3.20351413 2.181116 4.8473141 3.77097115 7 7 C6.625 9.6875 6.625 9.6875 6 12 C3.9375 12.875 3.9375 12.875 1 13 C-0.94056512 11.63120853 -2.56984092 10.11770995 -4.25390625 8.4453125 C-7.9534568 5.38304471 -12.38113313 5.69207554 -17 6 C-20.70764942 6.91182698 -23.97754122 7.85484617 -26.5625 10.75 C-27.23643829 14.21596836 -26.9716219 16.59932335 -26 20 C-21.4296031 23.7161171 -16.71386992 25.22438909 -11.125 26.875 C-4.52564376 28.94141138 0.98995695 31.04546989 6 36 C6.53753906 36.49113281 7.07507813 36.98226562 7.62890625 37.48828125 C10.71488263 40.89076803 10.27604706 45.18100669 10.20703125 49.50390625 C9.78126373 54.63721652 7.49969591 57.74782337 3.875 61.1875 C-1.85948349 65.77749624 -8.37433509 67.56973711 -15.671875 67.2890625 C-23.93439007 66.26317976 -31.02808297 63.58154104 -36.4375 57.0625 C-38 54 -38 54 -37.75 51.125 C-37.5025 50.42375 -37.255 49.7225 -37 49 C-34.25 48.6875 -34.25 48.6875 -31 49 C-29 51.3125 -29 51.3125 -27 54 C-22.05958365 57.2936109 -16.85811138 58.16247458 -11 58 C-6.61723001 57.03919039 -2.91928485 55.49972745 0 52 C1.08916154 48.62649951 1.08916154 48.62649951 1 45 C-1.60946341 40.95040819 -3.97443609 39.19560094 -8.4375 37.5 C-9.49195313 37.08492187 -10.54640625 36.66984375 -11.6328125 36.2421875 C-13.88931653 35.4097417 -16.15531284 34.60261449 -18.4296875 33.8203125 C-25.28324207 31.3986177 -30.68813309 29.06535945 -35 23 C-36.67517931 17.97446208 -37.00081137 12.74521623 -35.1640625 7.70703125 C-31.86989008 1.81510541 -27.38263823 -0.69397381 -21.046875 -2.58203125 C-13.7588979 -4.07022505 -6.71022767 -3.12967141 0 0 Z " fill="#02214C" transform="translate(195,59)"/>
<path d="M0 0 C2.57880421 1.65118534 3.57319589 2.38343046 5 5 C5.74476851 9.48701085 5.65215712 13.93385251 5.59375 18.47265625 C5.59379028 19.78785751 5.59383057 21.10305878 5.59387207 22.45811462 C5.59222188 25.23648597 5.57357992 28.01404743 5.54199219 30.79223633 C5.50227531 34.34893342 5.49795292 37.90457279 5.50545502 41.46144962 C5.5092661 44.86114689 5.48844442 48.26051129 5.46875 51.66015625 C5.46854858 52.93625259 5.46834717 54.21234894 5.46813965 55.52711487 C5.44427185 57.30432167 5.44427185 57.30432167 5.41992188 59.11743164 C5.41150269 60.15936172 5.4030835 61.20129181 5.39440918 62.27479553 C4.9416597 65.40310738 4.21918598 66.77259318 2 69 C-1.97344161 70.10373378 -4.08999772 70.41543583 -7.875 68.6875 C-10 67 -10 67 -11 65 C-11.11661056 63.11733947 -11.16968969 61.23060843 -11.19287109 59.34448242 C-11.20893402 58.15952682 -11.22499695 56.97457123 -11.24154663 55.75370789 C-11.28589963 50.33213768 -11.3275009 44.91071324 -11.35009766 39.48901367 C-11.36343377 36.62638367 -11.39127879 33.76446709 -11.43212891 30.90209961 C-11.49092365 26.78226678 -11.5087568 22.66319922 -11.5234375 18.54296875 C-11.55744156 16.62244942 -11.55744156 16.62244942 -11.59213257 14.66313171 C-11.56856127 4.78471529 -11.56856127 4.78471529 -8.65478516 1.69262695 C-5.35686565 -0.41004694 -3.83647183 -0.79926497 0 0 Z " fill="#02214C" transform="translate(131,56)"/>
<path d="M0 0 C0.66 1.65 1.32 3.3 2 5 C-1.61548764 9.24819798 -5.30568365 13.43380769 -9.125 17.5 C-9.74632812 18.1703125 -10.36765625 18.840625 -11.0078125 19.53125 C-13.49417209 21.3643308 -14.9802953 21.29256654 -18 21 C-18.66 19.35 -19.32 17.7 -20 16 C-16.38451236 11.75180202 -12.69431635 7.56619231 -8.875 3.5 C-8.25367188 2.8296875 -7.63234375 2.159375 -6.9921875 1.46875 C-4.50582791 -0.3643308 -3.0197047 -0.29256654 0 0 Z " fill="#02214C" transform="translate(339,46)"/>
</svg>
